<?xml version="1.0" encoding="UTF-8" standalone="no"?><!DOCTYPE svg PUBLIC "-//W3C//DTD SVG 1.1//EN" "http://www.w3.org/Graphics/SVG/1.1/DTD/svg11.dtd"><svg width="100%" height="100%" viewBox="0 0 800 800" version="1.1" xmlns="http://www.w3.org/2000/svg" xmlns:xlink="http://www.w3.org/1999/xlink" xml:space="preserve" xmlns:serif="http://www.serif.com/" style="fill-rule:evenodd;clip-rule:evenodd;stroke-linecap:round;stroke-linejoin:round;stroke-miterlimit:1.5;"><rect x="0" y="0" width="100" height="100" style="fill:#ff7e79;stroke:#000;stroke-width:2px;"/><rect x="100" y="0" width="100" height="100" style="fill:#ff7e79;stroke:#000;stroke-width:2px;"/><rect x="200" y="0" width="100" height="100" style="fill:#ff7e79;stroke:#000;stroke-width:2px;"/><rect x="300" y="0" width="100" height="100" style="fill:#ff7e79;stroke:#000;stroke-width:2px;"/><rect x="400" y="0" width="100" height="100" style="fill:#ff7e79;stroke:#000;stroke-width:2px;"/><rect x="500" y="0" width="100" height="100" style="fill:#ff7e79;stroke:#000;stroke-width:2px;"/><rect x="600" y="0" width="100" height="100" style="fill:#ff7e79;stroke:#000;stroke-width:2px;"/><rect x="700" y="0" width="100" height="100" style="fill:#ff7e79;stroke:#000;stroke-width:2px;"/><rect x="0" y="100" width="100" height="100" style="fill:#ffd479;stroke:#000;stroke-width:2px;"/><rect x="100" y="100" width="100" height="100" style="fill:#ffd479;stroke:#000;stroke-width:2px;"/><rect x="200" y="100" width="100" height="100" style="fill:#ffd479;stroke:#000;stroke-width:2px;"/><rect x="300" y="100" width="100" height="100" style="fill:#ffd479;stroke:#000;stroke-width:2px;"/><rect x="400" y="100" width="100" height="100" style="fill:#ffd479;stroke:#000;stroke-width:2px;"/><rect x="500" y="100" width="100" height="100" style="fill:#ffd479;stroke:#000;stroke-width:2px;"/><rect x="600" y="100" width="100" height="100" style="fill:#ffd479;stroke:#000;stroke-width:2px;"/><rect x="700" y="100" width="100" height="100" style="fill:#ffd479;stroke:#000;stroke-width:2px;"/><rect x="0" y="200" width="100" height="100" style="fill:#fffc79;stroke:#000;stroke-width:2px;"/><rect x="100" y="200" width="100" height="100" style="fill:#fffc79;stroke:#000;stroke-width:2px;"/><rect x="200" y="200" width="100" height="100" style="fill:#fffc79;stroke:#000;stroke-width:2px;"/><rect x="300" y="200" width="100" height="100" style="fill:#fffc79;stroke:#000;stroke-width:2px;"/><rect x="400" y="200" width="100" height="100" style="fill:#fffc79;stroke:#000;stroke-width:2px;"/><rect x="500" y="200" width="100" height="100" style="fill:#fffc79;stroke:#000;stroke-width:2px;"/><rect x="600" y="200" width="100" height="100" style="fill:#fffc79;stroke:#000;stroke-width:2px;"/><rect x="700" y="200" width="100" height="100" style="fill:#fffc79;stroke:#000;stroke-width:2px;"/><rect x="0" y="300" width="100" height="100" style="fill:#d4fb79;stroke:#000;stroke-width:2px;"/><rect x="100" y="300" width="100" height="100" style="fill:#d4fb79;stroke:#000;stroke-width:2px;"/><rect x="200" y="300" width="100" height="100" style="fill:#d4fb79;stroke:#000;stroke-width:2px;"/><rect x="300" y="300" width="100" height="100" style="fill:#d4fb79;stroke:#000;stroke-width:2px;"/><rect x="400" y="300" width="100" height="100" style="fill:#d4fb79;stroke:#000;stroke-width:2px;"/><rect x="500" y="300" width="100" height="100" style="fill:#d4fb79;stroke:#000;stroke-width:2px;"/><rect x="600" y="300" width="100" height="100" style="fill:#d4fb79;stroke:#000;stroke-width:2px;"/><rect x="700" y="300" width="100" height="100" style="fill:#d4fb79;stroke:#000;stroke-width:2px;"/><rect x="0" y="400" width="100" height="100" style="fill:#73fa79;stroke:#000;stroke-width:2px;"/><rect x="100" y="400" width="100" height="100" style="fill:#73fa79;stroke:#000;stroke-width:2px;"/><rect x="200" y="400" width="100" height="100" style="fill:#73fa79;stroke:#000;stroke-width:2px;"/><rect x="300" y="400" width="100" height="100" style="fill:#73fa79;stroke:#000;stroke-width:2px;"/><rect x="400" y="400" width="100" height="100" style="fill:#73fa79;stroke:#000;stroke-width:2px;"/><rect x="500" y="400" width="100" height="100" style="fill:#73fa79;stroke:#000;stroke-width:2px;"/><rect x="600" y="400" width="100" height="100" style="fill:#73fa79;stroke:#000;stroke-width:2px;"/><rect x="700" y="400" width="100" height="100" style="fill:#73fa79;stroke:#000;stroke-width:2px;"/><rect x="0" y="500" width="100" height="100" style="fill:#73fcd6;stroke:#000;stroke-width:2px;"/><rect x="100" y="500" width="100" height="100" style="fill:#73fcd6;stroke:#000;stroke-width:2px;"/><rect x="200" y="500" width="100" height="100" style="fill:#73fcd6;stroke:#000;stroke-width:2px;"/><rect x="300" y="500" width="100" height="100" style="fill:#73fcd6;stroke:#000;stroke-width:2px;"/><rect x="400" y="500" width="100" height="100" style="fill:#73fcd6;stroke:#000;stroke-width:2px;"/><rect x="500" y="500" width="100" height="100" style="fill:#73fcd6;stroke:#000;stroke-width:2px;"/><rect x="600" y="500" width="100" height="100" style="fill:#73fcd6;stroke:#000;stroke-width:2px;"/><rect x="700" y="500" width="100" height="100" style="fill:#73fcd6;stroke:#000;stroke-width:2px;"/><rect x="0" y="600" width="100" height="100" style="fill:#73fdff;stroke:#000;stroke-width:2px;"/><rect x="100" y="600" width="100" height="100" style="fill:#73fdff;stroke:#000;stroke-width:2px;"/><rect x="200" y="600" width="100" height="100" style="fill:#73fdff;stroke:#000;stroke-width:2px;"/><rect x="300" y="600" width="100" height="100" style="fill:#73fdff;stroke:#000;stroke-width:2px;"/><rect x="400" y="600" width="100" height="100" style="fill:#73fdff;stroke:#000;stroke-width:2px;"/><rect x="500" y="600" width="100" height="100" style="fill:#73fdff;stroke:#000;stroke-width:2px;"/><rect x="600" y="600" width="100" height="100" style="fill:#73fdff;stroke:#000;stroke-width:2px;"/><rect x="700" y="600" width="100" height="100" style="fill:#73fdff;stroke:#000;stroke-width:2px;"/><rect x="0" y="700" width="100" height="100" style="fill:#76d6ff;stroke:#000;stroke-width:2px;"/><rect x="100" y="700" width="100" height="100" style="fill:#76d6ff;stroke:#000;stroke-width:2px;"/><rect x="200" y="700" width="100" height="100" style="fill:#76d6ff;stroke:#000;stroke-width:2px;"/><rect x="300" y="700" width="100" height="100" style="fill:#76d6ff;stroke:#000;stroke-width:2px;"/><rect x="400" y="700" width="100" height="100" style="fill:#76d6ff;stroke:#000;stroke-width:2px;"/><rect x="500" y="700" width="100" height="100" style="fill:#76d6ff;stroke:#000;stroke-width:2px;"/><rect x="600" y="700" width="100" height="100" style="fill:#76d6ff;stroke:#000;stroke-width:2px;"/><rect x="700" y="700" width="100" height="100" style="fill:#76d6ff;stroke:#000;stroke-width:2px;"/></svg>