<?xml version="1.0" encoding="UTF-8" standalone="no"?>
<!DOCTYPE svg PUBLIC "-//W3C//DTD SVG 1.1//EN" "http://www.w3.org/Graphics/SVG/1.1/DTD/svg11.dtd">
<svg width="100%" height="100%" viewBox="0 0 104 104" version="1.1" xmlns="http://www.w3.org/2000/svg" xmlns:xlink="http://www.w3.org/1999/xlink" xml:space="preserve" xmlns:serif="http://www.serif.com/" style="fill-rule:evenodd;clip-rule:evenodd;stroke-linecap:round;stroke-linejoin:round;stroke-miterlimit:1.5;">
    <g transform="matrix(1.3899,0,0,1.41245,-4.40417,-8.67647)">
        <ellipse cx="40.581" cy="42.958" rx="35.974" ry="35.4" style="fill:rgb(213,237,245);stroke:rgb(13,71,90);stroke-width:2.14px;"/>
    </g>
    <g id="chart-user.svg" transform="matrix(0.0904902,0,0,0.0904902,52,52)">
        <g transform="matrix(1,0,0,1,-320,-256)">
            <path d="M160,320C213.02,320 256,277.02 256,224C256,170.98 213.02,128 160,128C106.1,128 64,170.1 64,224C64,277 106.1,320 160,320ZM160,160C195.29,160 224,188.71 224,224C224,259.29 195.3,288 160,288C124.7,288 96,259.3 96,224C96,188.7 124.7,160 160,160ZM592,0L208,0C181.5,0 160,21.53 160,48L160,80C160,88.84 167.2,96 176,96C184.8,96 192,88.84 192,80L192,48C192,39.19 199.2,32 208,32L592,32C600.8,32 608,39.19 608,48L608,368C608,376.812 600.828,384 592,384L352,384C343.156,384 336,391.156 336,400C336,408.844 343.2,416 352,416L592,416C618.5,416 640,394.5 640,368L640,48C640,21.53 618.5,0 592,0ZM192,352L128,352C57.31,352 0,409.31 0,480C0,497.67 14.33,512 32,512L288,512C305.67,512 320,497.67 320,480C320,409.3 262.7,352 192,352ZM32,480C32,427.06 75.07,384 128,384L192,384C244.94,384 288,427.06 288,480L32,480ZM315.3,164.7C309.05,158.45 298.92,158.45 292.68,164.7C286.44,170.95 286.43,181.08 292.68,187.32L372.68,267.32C375.8,270.4 379.9,272 384,272C388.1,272 392.188,270.438 395.31,267.312L496,166.6L496,224C496,232.844 503.156,240 512,240C520.844,240 528,232.844 528,224L528,128C528,119.156 520.844,112 512,112L416,112C407.156,112 400,119.156 400,128C400,136.844 407.156,144 416,144L473.38,144L384,233.4L315.3,164.7Z" style="fill:rgb(13,71,90);fill-rule:nonzero;"/>
        </g>
    </g>
</svg>
