<?xml version="1.0" encoding="UTF-8" standalone="no"?>
<!DOCTYPE svg PUBLIC "-//W3C//DTD SVG 1.1//EN" "http://www.w3.org/Graphics/SVG/1.1/DTD/svg11.dtd">
<svg width="100%" height="100%" viewBox="0 0 104 104" version="1.1" xmlns="http://www.w3.org/2000/svg" xmlns:xlink="http://www.w3.org/1999/xlink" xml:space="preserve" xmlns:serif="http://www.serif.com/" style="fill-rule:evenodd;clip-rule:evenodd;stroke-linecap:round;stroke-linejoin:round;stroke-miterlimit:1.5;">
    <g transform="matrix(1.3899,0,0,1.41245,-4.40417,-8.67647)">
        <ellipse cx="40.581" cy="42.958" rx="35.974" ry="35.4" style="fill:rgb(213,237,245);stroke:rgb(13,71,90);stroke-width:2.14px;"/>
    </g>
    <g id="gifts.svg" transform="matrix(0.0914469,0,0,0.0914469,52,52)">
        <g transform="matrix(1,0,0,1,-320,-256)">
            <clipPath id="_clip1">
                <rect x="0" y="0" width="640" height="512"/>
            </clipPath>
            <g clip-path="url(#_clip1)">
                <path d="M582.7,224.7C588.5,215.1 592,203.1 592,192C592,156.7 563.28,128 528,128C488.6,128 453.78,170.03 432,204.07C410.2,170 375.4,128 336,128C300.72,128 272,156.7 272,192C272,203.98 275.516,215.08 281.271,224.68C249.1,228.1 224,254.1 224,287.1L224,447.1C224,483.3 252.7,512 288,512L576,512C611.35,512 640,483.34 640,448L640,287.1C640,254.1 614.9,228.1 582.7,224.7ZM336,160C355.23,160 382.17,185.02 406.66,224L335.99,224.005C318.3,224 304,209.6 304,192C304,174.4 318.3,160 336,160ZM416,480L288,480C270.36,480 256,465.64 256,448L256,384L416,384.004L416,480ZM416,352L256,352L256,288C256,270.36 270.36,256 288,256L416,256L416,352ZM528,160C545.66,160 560,174.36 560,192C560,209.64 545.67,224.01 528.01,224.01L457.3,224C481.8,185 508.8,160 528,160ZM608,448C608,465.64 593.64,480 576,480L448,480L448,384.9L608,384L608,448ZM608,352L448,352.004L448,256L576,256C593.64,256 608,270.36 608,288L608,352ZM176,480L64,480C46.33,480 32,465.67 32,448L32,160C32,142.33 46.33,128 64,128L240,128C248.8,128 256,120.8 256,112C256,103.2 248.8,96 240,96L215.8,96L264.5,65.56C272,60.888 274.281,51.01 269.594,43.51C264.9,36 254.1,33.77 247.5,38.44L199.7,68.29L222.27,23.15C226.208,15.244 223.02,5.63 215.114,1.68C207.239,-2.226 197.614,0.946 193.644,8.836L160,76.22L126.3,8.844C122.3,0.922 112.8,-2.25 104.8,1.688C96.94,5.641 93.75,15.25 97.69,23.16L120.26,68.3L72.47,38.44C65.06,33.77 55.13,36 50.44,43.52C45.75,51.02 48.03,60.89 55.53,65.56L104.2,96L64,96C28.65,96 0,124.7 0,160L0,448C0,483.35 28.65,512 64,512L176,512C184.8,512 192,504.8 192,496C192,487.2 184.8,480 176,480Z" style="fill:rgb(14,72,91);fill-rule:nonzero;"/>
            </g>
        </g>
    </g>
</svg>
