<?xml version="1.0" encoding="UTF-8" standalone="no"?>
<!DOCTYPE svg PUBLIC "-//W3C//DTD SVG 1.1//EN" "http://www.w3.org/Graphics/SVG/1.1/DTD/svg11.dtd">
<svg width="100%" height="100%" viewBox="0 0 300 300" version="1.1" xmlns="http://www.w3.org/2000/svg" xmlns:xlink="http://www.w3.org/1999/xlink" xml:space="preserve" xmlns:serif="http://www.serif.com/" style="fill-rule:evenodd;clip-rule:evenodd;stroke-linejoin:round;stroke-miterlimit:2;">
    <g transform="matrix(1,0,0,1,10.9198,12.1215)">
        <g transform="matrix(1.15368,-0.099364,0.0893447,1.03735,14.8173,263.338)">
            <path d="M6.782,-177.786C5.19,-183.608 6.172,-189.924 9.43,-194.813C12.687,-199.702 17.835,-202.585 23.307,-202.585L31.744,-202.585L69.903,-6.023L66.65,-4.744C66.65,-4.744 66.65,-4.744 66.649,-4.743C63.738,-3.516 60.5,-3.685 57.706,-5.211C54.912,-6.737 52.811,-9.483 51.906,-12.795C42.877,-45.809 18.673,-134.308 6.782,-177.786Z" style="fill:rgb(249,185,183);fill-rule:nonzero;"/>
        </g>
        <g transform="matrix(1.26393,-0.0214845,0.0200598,1.18011,21.4713,267.045)">
            <path d="M5.937,-180.877C4.536,-185.998 5.47,-191.528 8.458,-195.799C11.445,-200.071 16.137,-202.585 21.12,-202.585L31.744,-202.585L69.903,-6.023L66.65,-4.744C66.65,-4.744 66.65,-4.744 66.649,-4.744C63.764,-3.526 60.533,-3.665 57.748,-5.125C54.963,-6.586 52.88,-9.234 52.008,-12.421C42.844,-45.928 17.53,-138.488 5.937,-180.877Z" style="fill:rgb(239,122,133);fill-rule:nonzero;"/>
        </g>
        <g transform="matrix(269.827,227.707,227.707,-269.827,6.91012,7.72048)">
            <path d="M0.643,-0.374C0.656,-0.384 0.673,-0.389 0.689,-0.386C0.706,-0.382 0.72,-0.372 0.728,-0.358C0.77,-0.281 0.839,-0.159 0.839,-0.159L0.688,-0.213L0.63,-0.061L0.774,-0.021L0.646,0.28L0.668,0.282C0.668,0.282 0.586,0.348 0.538,0.388C0.517,0.404 0.487,0.405 0.467,0.388C0.393,0.33 0.224,0.196 0.136,0.127C0.123,0.116 0.115,0.1 0.114,0.083C0.114,0.065 0.122,0.049 0.135,0.038C0.253,-0.057 0.528,-0.28 0.643,-0.374Z" style="fill:rgb(0,153,204);fill-rule:nonzero;"/>
        </g>
        <g transform="matrix(269.827,227.707,227.707,-269.827,21.1548,-9.15904)">
            <path d="M0.909,-0.098C0.909,-0.098 0.921,-0.078 0.932,-0.057C0.946,-0.033 0.94,-0.002 0.919,0.015C0.877,0.049 0.815,0.098 0.815,0.098L0.909,-0.098Z" style="fill:rgb(0,153,204);fill-rule:nonzero;"/>
        </g>
        <g transform="matrix(1.18552,0,0,1.18552,232.03,88.0748)">
            <path d="M0,133.845L32.799,13.031L13.142,0L-14.467,94.089L-54.83,75.923L-65.929,108.114L0,133.845Z" style="fill:rgb(239,122,133);fill-rule:nonzero;"/>
        </g>
        <g transform="matrix(1.18505,-0.0333682,-0.0333682,-1.18505,88.7539,46.9087)">
            <path d="M0.371,1.637L112.747,1.637L116.443,-21.083L5.089,-26.385L0.371,1.637Z" style="fill:white;fill-rule:nonzero;"/>
        </g>
        <g transform="matrix(1.17974,-0.116884,-0.116884,-1.17974,97.2143,96.0638)">
            <path d="M1.196,3.946L77.825,3.946L80.214,-20.656L3.699,-24.258L1.196,3.946Z" style="fill:white;fill-rule:nonzero;"/>
        </g>
        <g transform="matrix(1.16983,-0.192245,-0.192245,-1.16983,104.648,140.865)">
            <path d="M2.116,2.539L30.526,2.539L31.361,-24.414L3.124,-25.998L2.116,2.539Z" style="fill:white;fill-rule:nonzero;"/>
        </g>
    </g>
</svg>
