<?xml version="1.0" encoding="UTF-8" standalone="no"?>
<!DOCTYPE svg PUBLIC "-//W3C//DTD SVG 1.1//EN" "http://www.w3.org/Graphics/SVG/1.1/DTD/svg11.dtd">
<svg width="100%" height="100%" viewBox="0 0 300 300" version="1.1" xmlns="http://www.w3.org/2000/svg" xmlns:xlink="http://www.w3.org/1999/xlink" xml:space="preserve" xmlns:serif="http://www.serif.com/" style="fill-rule:evenodd;clip-rule:evenodd;stroke-linejoin:round;stroke-miterlimit:2;">
    <g transform="matrix(1.23275,0,0,1.23275,-6.14695,2.42514)">
        <g transform="matrix(0.890826,-0.083739,0.083739,0.890826,36.6714,231.519)">
            <path d="M6.267,-179.669C4.776,-185.123 5.913,-190.96 9.343,-195.454C12.773,-199.948 18.104,-202.585 23.757,-202.585C28.338,-202.585 31.744,-202.585 31.744,-202.585L69.903,-6.023L66.65,-4.744C66.65,-4.744 66.649,-4.744 66.648,-4.743C63.811,-3.546 60.594,-3.631 57.824,-4.978C55.053,-6.324 52.998,-8.8 52.186,-11.771C43.26,-44.406 18.081,-136.471 6.267,-179.669Z" style="fill:rgb(239,122,133);fill-rule:nonzero;"/>
        </g>
        <g transform="matrix(0.999856,-0.0169958,0.0169958,0.999856,31.116,230.328)">
            <path d="M5.608,-182.081C4.273,-186.961 5.291,-192.183 8.36,-196.204C11.429,-200.226 16.198,-202.585 21.257,-202.585C27.042,-202.585 31.744,-202.585 31.744,-202.585L69.903,-6.023L66.65,-4.744C66.65,-4.744 66.65,-4.744 66.65,-4.744C63.811,-3.546 60.595,-3.632 57.824,-4.978C55.053,-6.324 52.998,-8.801 52.185,-11.772C43.09,-45.029 17.117,-139.997 5.608,-182.081Z" style="fill:rgb(183,209,218);fill-rule:nonzero;"/>
        </g>
        <g transform="matrix(227.602,192.074,192.074,-227.602,6.91139,7.24232)">
            <path d="M0.645,-0.376C0.657,-0.386 0.674,-0.39 0.689,-0.387C0.705,-0.384 0.719,-0.374 0.727,-0.36C0.769,-0.284 0.839,-0.159 0.839,-0.159L0.688,-0.213L0.63,-0.061L0.774,-0.021L0.646,0.28L0.668,0.282C0.668,0.282 0.585,0.349 0.536,0.389C0.516,0.405 0.488,0.405 0.468,0.389C0.395,0.331 0.222,0.194 0.134,0.125C0.121,0.115 0.113,0.099 0.113,0.083C0.113,0.066 0.12,0.05 0.133,0.04C0.25,-0.055 0.53,-0.282 0.645,-0.376Z" style="fill:rgb(0,120,160);fill-rule:nonzero;"/>
        </g>
        <g transform="matrix(227.602,192.074,192.074,-227.602,18.9269,-6.99574)">
            <path d="M0.909,-0.098C0.909,-0.098 0.921,-0.077 0.933,-0.055C0.946,-0.032 0.941,-0.003 0.92,0.014C0.878,0.048 0.815,0.098 0.815,0.098L0.909,-0.098Z" style="fill:rgb(0,120,160);fill-rule:nonzero;"/>
        </g>
        <g transform="matrix(1,0,0,1,196.803,75.0221)">
            <path d="M0,133.845L32.799,13.031L13.142,0L-14.467,94.089L-54.83,75.923L-65.929,108.114L0,133.845Z" style="fill:rgb(239,122,133);fill-rule:nonzero;"/>
        </g>
        <g transform="matrix(0.999604,-0.0281464,-0.0281464,-0.999604,75.9475,40.2981)">
            <path d="M0.371,1.637L112.747,1.637L116.443,-21.083L5.089,-26.385L0.371,1.637Z" style="fill:white;fill-rule:nonzero;"/>
        </g>
        <g transform="matrix(0.995128,-0.0985928,-0.0985928,-0.995128,83.084,81.7609)">
            <path d="M1.196,3.946L77.825,3.946L80.214,-20.656L3.699,-24.258L1.196,3.946Z" style="fill:white;fill-rule:nonzero;"/>
        </g>
        <g transform="matrix(0.986764,-0.162161,-0.162161,-0.986764,89.3545,119.551)">
            <path d="M2.116,2.539L30.526,2.539L31.361,-24.414L3.124,-25.998L2.116,2.539Z" style="fill:white;fill-rule:nonzero;"/>
        </g>
    </g>
</svg>
