<?xml version="1.0" encoding="UTF-8" standalone="no"?><!DOCTYPE svg PUBLIC "-//W3C//DTD SVG 1.1//EN" "http://www.w3.org/Graphics/SVG/1.1/DTD/svg11.dtd"><svg width="100%" height="100%" viewBox="0 0 102 132" version="1.1" xmlns="http://www.w3.org/2000/svg" xmlns:xlink="http://www.w3.org/1999/xlink" xml:space="preserve" xmlns:serif="http://www.serif.com/" style="fill-rule:evenodd;clip-rule:evenodd;stroke-linejoin:round;stroke-miterlimit:2;"><g><path d="M98.85,130.727l-86.438,0c-0.993,0 -1.798,-0.804 -1.798,-1.798l0,-9.258c0,-0.993 0.805,-1.798 1.798,-1.798c0.994,-0 1.798,0.805 1.798,1.798l0,7.46l82.842,0l-0,-112.999l-7.464,-0c-0.993,-0 -1.798,-0.806 -1.798,-1.798c-0,-0.994 0.805,-1.798 1.798,-1.798l9.262,-0c0.993,-0 1.798,0.804 1.798,1.798l-0,116.595c-0,0.994 -0.805,1.798 -1.798,1.798Z" style="fill:#b7d1da;fill-rule:nonzero;"/><path d="M4.948,117.873l64.668,-0l18.174,-17.17l-0,-95.834l-82.842,-0l0,113.004Zm65.383,3.596l-67.181,-0c-0.993,-0 -1.798,-0.804 -1.798,-1.798l0,-116.6c0,-0.994 0.805,-1.798 1.798,-1.798l86.438,-0c0.993,-0 1.798,0.804 1.798,1.798l-0,98.408c-0,0.494 -0.204,0.967 -0.563,1.306l-19.257,18.194c-0.335,0.315 -0.776,0.49 -1.235,0.49Z" style="fill:#b7d1da;fill-rule:nonzero;"/><path d="M70.331,121.469c-0.993,-0 -1.798,-0.804 -1.798,-1.798l0,-18.192c0,-0.994 0.805,-1.798 1.798,-1.798l19.257,-0c0.993,-0 1.798,0.804 1.798,1.798c-0,0.992 -0.805,1.798 -1.798,1.798l-17.459,-0l0,16.394c0,0.994 -0.805,1.798 -1.798,1.798Z" style="fill:#b7d1da;fill-rule:nonzero;"/><path d="M46.374,40.74c-11.378,-0 -20.634,9.257 -20.634,20.633c0,11.373 9.256,20.625 20.634,20.625c11.373,0 20.625,-9.252 20.625,-20.625c0,-11.376 -9.252,-20.633 -20.625,-20.633Zm-0,44.854c-13.36,0 -24.23,-10.865 -24.23,-24.221c0,-13.36 10.87,-24.229 24.23,-24.229c13.355,-0 24.221,10.869 24.221,24.229c-0,13.356 -10.866,24.221 -24.221,24.221Z" style="fill:#0078a0;fill-rule:nonzero;"/><path d="M42.527,71.648c-0.013,0 -0.027,0 -0.04,-0.001c-0.518,-0.012 -1.006,-0.246 -1.338,-0.643l-7.938,-9.475c-0.637,-0.762 -0.537,-1.895 0.225,-2.534c0.761,-0.638 1.895,-0.537 2.532,0.224l6.622,7.905l12.734,-13.869c0.67,-0.73 1.809,-0.781 2.54,-0.108c0.731,0.671 0.78,1.809 0.109,2.541l-14.121,15.378c-0.342,0.371 -0.822,0.582 -1.325,0.582Z" style="fill:#b7d1da;fill-rule:nonzero;"/></g></svg>