<?xml version="1.0" encoding="UTF-8" standalone="no"?><!DOCTYPE svg PUBLIC "-//W3C//DTD SVG 1.1//EN" "http://www.w3.org/Graphics/SVG/1.1/DTD/svg11.dtd"><svg width="100%" height="100%" viewBox="0 0 420 420" version="1.1" xmlns="http://www.w3.org/2000/svg" xmlns:xlink="http://www.w3.org/1999/xlink" xml:space="preserve" xmlns:serif="http://www.serif.com/" style="fill-rule:evenodd;clip-rule:evenodd;stroke-linejoin:round;stroke-miterlimit:2;"><path d="M235.677,219.101c-2.816,0 -5.101,-2.285 -5.101,-5.101l-0,-27.743c-0,-2.789 -2.266,-5.054 -5.051,-5.054l-6.255,-0c-2.785,-0 -5.05,2.265 -5.05,5.054l-0,27.743c-0,2.816 -2.286,5.101 -5.102,5.101c-2.816,0 -5.102,-2.285 -5.102,-5.101l0,-27.743c0,-8.415 6.843,-15.258 15.254,-15.258l6.255,0c8.414,0 15.254,6.843 15.254,15.258l-0,27.743c-0,2.816 -2.282,5.101 -5.102,5.101Z" style="fill:#0078a0;fill-rule:nonzero;"/><path d="M245.751,331.167c-2.816,0 -5.101,-2.285 -5.101,-5.101l-0,-3.983c-0,-7.965 2.016,-15.869 5.829,-22.855l4.255,-7.809c3,-5.5 4.585,-11.714 4.585,-17.972l-0,-73.65c-0,-2.789 -2.266,-5.054 -5.051,-5.054l-4.432,-0c-2.789,-0 -5.057,2.265 -5.057,5.054l-0,14.203c-0,2.816 -2.282,5.101 -5.102,5.101c-2.816,0 -5.101,-2.285 -5.101,-5.101l-0,-14.203c-0,-8.415 6.846,-15.258 15.26,-15.258l4.432,0c8.411,0 15.254,6.843 15.254,15.258l-0,73.65c-0,7.959 -2.017,15.863 -5.826,22.856l-4.258,7.809c-3,5.492 -4.585,11.71 -4.585,17.971l-0,3.983c-0,2.816 -2.282,5.101 -5.102,5.101Z" style="fill:#0078a0;fill-rule:nonzero;"/><path d="M155.993,331.167c-2.816,0 -5.102,-2.285 -5.102,-5.101l0,-1.925c0,-7.445 -2.187,-14.652 -6.322,-20.842l-12.666,-18.972c-5.245,-7.853 -8.017,-17.008 -8.017,-26.48l0,-49.908c0,-8.415 6.847,-15.258 15.261,-15.258l16.846,0c2.816,0 5.101,2.283 5.101,5.102c0,2.82 -2.285,5.102 -5.101,5.102l-16.846,-0c-2.789,-0 -5.057,2.265 -5.057,5.054l-0,49.908c-0,7.448 2.176,14.645 6.295,20.814l12.669,18.968c5.258,7.874 8.04,17.043 8.04,26.512l0,1.925c0,2.816 -2.285,5.101 -5.101,5.101Z" style="fill:#0078a0;fill-rule:nonzero;"/><path d="M155.993,243.405c-2.816,0 -5.102,-2.282 -5.102,-5.101l0,-127.541c0,-8.415 6.843,-15.258 15.254,-15.258l6.255,0c8.414,0 15.254,6.843 15.254,15.258l-0,103.237c-0,2.816 -2.282,5.101 -5.102,5.101c-2.816,0 -5.102,-2.285 -5.102,-5.101l0,-103.237c0,-2.786 -2.265,-5.054 -5.05,-5.054l-6.255,-0c-2.785,-0 -5.051,2.268 -5.051,5.054l0,127.541c0,2.819 -2.285,5.101 -5.101,5.101Z" style="fill:#0078a0;fill-rule:nonzero;"/><path d="M209.118,219.101c-2.816,0 -5.102,-2.285 -5.102,-5.101l0,-41.283c0,-2.789 -2.268,-5.054 -5.054,-5.054l-6.251,0c-2.789,0 -5.057,2.265 -5.057,5.054l-0,41.283c-0,2.816 -2.282,5.101 -5.102,5.101c-2.816,0 -5.102,-2.285 -5.102,-5.101l0,-41.283c0,-8.414 6.847,-15.257 15.261,-15.257l6.251,-0c8.411,-0 15.258,6.843 15.258,15.257l-0,41.283c-0,2.816 -2.286,5.101 -5.102,5.101Z" style="fill:#0078a0;fill-rule:nonzero;"/><path d="M130.702,411.046c-2.816,-0 -5.101,-2.286 -5.101,-5.102l-0,-56.013c-0,-2.819 2.285,-5.101 5.101,-5.101l139.197,-0c2.816,-0 5.102,2.282 5.102,5.101l-0,28.804c-0,2.816 -2.286,5.102 -5.102,5.102c-2.816,-0 -5.102,-2.286 -5.102,-5.102l0,-23.702l-128.993,-0l-0,50.911c-0,2.816 -2.286,5.102 -5.102,5.102Z" style="fill:#0078a0;fill-rule:nonzero;"/><path d="M257.846,355.033c-2.817,-0 -5.102,-2.286 -5.102,-5.102l-0,-15.437l-104.883,-0l-0,15.437c-0,2.816 -2.286,5.102 -5.102,5.102c-2.816,-0 -5.101,-2.286 -5.101,-5.102l-0,-20.539c-0,-2.819 2.285,-5.102 5.101,-5.102l115.087,0c2.816,0 5.101,2.283 5.101,5.102l0,20.539c0,2.816 -2.285,5.102 -5.101,5.102Z" style="fill:#0078a0;fill-rule:nonzero;"/><path d="M197.296,133.601c-0.946,0 -1.901,-0.262 -2.755,-0.809c-2.367,-1.527 -3.058,-4.68 -1.531,-7.051c2.922,-4.547 4.466,-9.809 4.466,-15.223c0,-15.543 -12.652,-28.188 -28.202,-28.188c-15.553,-0 -28.205,12.645 -28.205,28.188c-0,4.656 1.16,9.268 3.353,13.339c1.34,2.479 0.415,5.574 -2.068,6.911c-2.482,1.337 -5.571,0.411 -6.911,-2.071c-2.993,-5.551 -4.577,-11.84 -4.577,-18.179c-0,-21.169 17.233,-38.392 38.408,-38.392c21.179,0 38.405,17.223 38.405,38.392c0,7.373 -2.105,14.546 -6.088,20.74c-0.976,1.517 -2.615,2.343 -4.295,2.343Z" style="fill:#0078a0;fill-rule:nonzero;"/><path d="M233.041,101.158c-2.785,-0 -5.05,2.265 -5.05,5.054c-0,2.786 2.265,5.051 5.05,5.051c2.786,-0 5.054,-2.265 5.054,-5.051c0,-2.789 -2.268,-5.054 -5.054,-5.054Zm0,20.308c-8.414,-0 -15.254,-6.843 -15.254,-15.254c0,-8.414 6.84,-15.257 15.254,-15.257c8.415,-0 15.258,6.843 15.258,15.257c-0,8.411 -6.843,15.254 -15.258,15.254Z" style="fill:#b7d1da;fill-rule:nonzero;"/><path d="M105.504,101.158c-2.786,-0 -5.054,2.265 -5.054,5.054c-0,2.786 2.268,5.051 5.054,5.051c2.785,-0 5.05,-2.265 5.05,-5.051c0,-2.789 -2.265,-5.054 -5.05,-5.054Zm-0,20.308c-8.415,-0 -15.258,-6.843 -15.258,-15.254c0,-8.414 6.843,-15.257 15.258,-15.257c8.414,-0 15.253,6.843 15.253,15.257c0,8.411 -6.839,15.254 -15.253,15.254Z" style="fill:#b7d1da;fill-rule:nonzero;"/><path d="M24.475,101.158c-2.785,-0 -5.054,2.265 -5.054,5.054c0,2.786 2.269,5.051 5.054,5.051c2.786,-0 5.051,-2.265 5.051,-5.051c0,-2.789 -2.265,-5.054 -5.051,-5.054Zm0,20.308c-8.414,-0 -15.257,-6.843 -15.257,-15.254c0,-8.414 6.843,-15.257 15.257,-15.257c8.415,-0 15.254,6.843 15.254,15.257c0,8.411 -6.839,15.254 -15.254,15.254Z" style="fill:#b7d1da;fill-rule:nonzero;"/><path d="M273.661,101.158c-2.786,-0 -5.054,2.265 -5.054,5.054c-0,2.786 2.268,5.051 5.054,5.051c2.788,-0 5.054,-2.265 5.054,-5.051c-0,-2.789 -2.266,-5.054 -5.054,-5.054Zm-0,20.308c-8.411,-0 -15.258,-6.843 -15.258,-15.254c0,-8.414 6.847,-15.257 15.258,-15.257c8.414,-0 15.257,6.843 15.257,15.257c-0,8.411 -6.843,15.254 -15.257,15.254Z" style="fill:#0078a0;fill-rule:nonzero;"/><path d="M314.283,101.158c-2.789,-0 -5.057,2.265 -5.057,5.054c-0,2.786 2.268,5.051 5.057,5.051c2.786,-0 5.051,-2.265 5.051,-5.051c-0,-2.789 -2.265,-5.054 -5.051,-5.054Zm0,20.308c-8.414,-0 -15.26,-6.843 -15.26,-15.254c-0,-8.414 6.846,-15.257 15.26,-15.257c8.411,-0 15.254,6.843 15.254,15.257c0,8.411 -6.843,15.254 -15.254,15.254Z" style="fill:#ef7a85;fill-rule:nonzero;"/><path d="M354.899,101.158c-2.785,-0 -5.05,2.265 -5.05,5.054c-0,2.786 2.265,5.051 5.05,5.051c2.789,-0 5.058,-2.265 5.058,-5.051c-0,-2.789 -2.269,-5.054 -5.058,-5.054Zm0,20.308c-8.411,-0 -15.254,-6.843 -15.254,-15.254c0,-8.414 6.843,-15.257 15.254,-15.257c8.415,-0 15.261,6.843 15.261,15.257c0,8.411 -6.846,15.254 -15.261,15.254Z" style="fill:#ef7a85;fill-rule:nonzero;"/><path d="M64.884,101.158c-2.789,-0 -5.057,2.265 -5.057,5.054c-0,2.786 2.268,5.051 5.057,5.051c2.786,-0 5.051,-2.265 5.051,-5.051c-0,-2.789 -2.265,-5.054 -5.051,-5.054Zm0,20.308c-8.414,-0 -15.26,-6.843 -15.26,-15.254c-0,-8.414 6.846,-15.257 15.26,-15.257c8.411,-0 15.254,6.843 15.254,15.257c0,8.411 -6.843,15.254 -15.254,15.254Z" style="fill:#0078a0;fill-rule:nonzero;"/><path d="M233.041,60.539c-2.785,-0 -5.05,2.265 -5.05,5.054c-0,2.785 2.265,5.05 5.05,5.05c2.786,0 5.054,-2.265 5.054,-5.05c0,-2.789 -2.268,-5.054 -5.054,-5.054Zm0,20.308c-8.414,-0 -15.254,-6.843 -15.254,-15.254c0,-8.415 6.84,-15.258 15.254,-15.258c8.415,0 15.258,6.843 15.258,15.258c-0,8.411 -6.843,15.254 -15.258,15.254Z" style="fill:#b7d1da;fill-rule:nonzero;"/><path d="M105.504,60.539c-2.786,-0 -5.054,2.265 -5.054,5.054c-0,2.785 2.268,5.05 5.054,5.05c2.785,0 5.05,-2.265 5.05,-5.05c0,-2.789 -2.265,-5.054 -5.05,-5.054Zm-0,20.308c-8.415,-0 -15.258,-6.843 -15.258,-15.254c0,-8.415 6.843,-15.258 15.258,-15.258c8.414,0 15.253,6.843 15.253,15.258c0,8.411 -6.839,15.254 -15.253,15.254Z" style="fill:#0078a0;fill-rule:nonzero;"/><path d="M273.661,60.539c-2.786,-0 -5.054,2.265 -5.054,5.054c-0,2.785 2.268,5.05 5.054,5.05c2.788,0 5.054,-2.265 5.054,-5.05c-0,-2.789 -2.266,-5.054 -5.054,-5.054Zm-0,20.308c-8.411,-0 -15.258,-6.843 -15.258,-15.254c0,-8.415 6.847,-15.258 15.258,-15.258c8.414,0 15.257,6.843 15.257,15.258c-0,8.411 -6.843,15.254 -15.257,15.254Z" style="fill:#b7d1da;fill-rule:nonzero;"/><path d="M314.283,60.539c-2.789,-0 -5.057,2.265 -5.057,5.054c-0,2.785 2.268,5.05 5.057,5.05c2.786,0 5.051,-2.265 5.051,-5.05c-0,-2.789 -2.265,-5.054 -5.051,-5.054Zm0,20.308c-8.414,-0 -15.26,-6.843 -15.26,-15.254c-0,-8.415 6.846,-15.258 15.26,-15.258c8.411,0 15.254,6.843 15.254,15.258c0,8.411 -6.843,15.254 -15.254,15.254Z" style="fill:#ef7a85;fill-rule:nonzero;"/><path d="M64.884,60.539c-2.789,-0 -5.057,2.265 -5.057,5.054c-0,2.785 2.268,5.05 5.057,5.05c2.786,0 5.051,-2.265 5.051,-5.05c-0,-2.789 -2.265,-5.054 -5.051,-5.054Zm0,20.308c-8.414,-0 -15.26,-6.843 -15.26,-15.254c-0,-8.415 6.846,-15.258 15.26,-15.258c8.411,0 15.254,6.843 15.254,15.258c0,8.411 -6.843,15.254 -15.254,15.254Z" style="fill:#ef7a85;fill-rule:nonzero;"/><path d="M24.832,20.033c-2.789,-0 -5.057,2.265 -5.057,5.054c-0,2.785 2.268,5.05 5.057,5.05c2.786,0 5.051,-2.265 5.051,-5.05c-0,-2.789 -2.265,-5.054 -5.051,-5.054Zm0,20.308c-8.414,-0 -15.261,-6.843 -15.261,-15.254c0,-8.415 6.847,-15.258 15.261,-15.258c8.411,0 15.254,6.843 15.254,15.258c0,8.411 -6.843,15.254 -15.254,15.254Z" style="fill:#b7d1da;fill-rule:nonzero;"/><path d="M233.041,19.919c-2.785,0 -5.05,2.265 -5.05,5.051c-0,2.789 2.265,5.054 5.05,5.054c2.786,0 5.054,-2.265 5.054,-5.054c0,-2.786 -2.268,-5.051 -5.054,-5.051Zm0,20.308c-8.414,0 -15.254,-6.843 -15.254,-15.257c0,-8.411 6.84,-15.254 15.254,-15.254c8.415,0 15.258,6.843 15.258,15.254c-0,8.414 -6.843,15.257 -15.258,15.257Z" style="fill:#0078a0;fill-rule:nonzero;"/><path d="M105.504,19.919c-2.786,0 -5.054,2.265 -5.054,5.051c-0,2.789 2.268,5.054 5.054,5.054c2.785,0 5.05,-2.265 5.05,-5.054c0,-2.786 -2.265,-5.051 -5.05,-5.051Zm-0,20.308c-8.415,0 -15.258,-6.843 -15.258,-15.257c0,-8.411 6.843,-15.254 15.258,-15.254c8.414,0 15.253,6.843 15.253,15.254c0,8.414 -6.839,15.257 -15.253,15.257Z" style="fill:#0078a0;fill-rule:nonzero;"/><path d="M354.899,19.919c-2.785,0 -5.05,2.265 -5.05,5.051c-0,2.789 2.265,5.054 5.05,5.054c2.789,0 5.058,-2.265 5.058,-5.054c-0,-2.786 -2.269,-5.051 -5.058,-5.051Zm0,20.308c-8.411,0 -15.254,-6.843 -15.254,-15.257c0,-8.411 6.843,-15.254 15.254,-15.254c8.415,0 15.261,6.843 15.261,15.254c0,8.414 -6.846,15.257 -15.261,15.257Z" style="fill:#0078a0;fill-rule:nonzero;"/><path d="M395.341,19.919c-2.785,0 -5.051,2.265 -5.051,5.051c0,2.789 2.266,5.054 5.051,5.054c2.789,0 5.058,-2.265 5.058,-5.054c-0,-2.786 -2.269,-5.051 -5.058,-5.051Zm0,20.308c-8.411,0 -15.254,-6.843 -15.254,-15.257c0,-8.411 6.843,-15.254 15.254,-15.254c8.415,0 15.261,6.843 15.261,15.254c-0,8.414 -6.846,15.257 -15.261,15.257Z" style="fill:#b7d1da;fill-rule:nonzero;"/><path d="M146.119,19.919c-2.785,0 -5.05,2.265 -5.05,5.051c-0,2.789 2.265,5.054 5.05,5.054c2.789,0 5.058,-2.265 5.058,-5.054c-0,-2.786 -2.269,-5.051 -5.058,-5.051Zm0,20.308c-8.41,0 -15.253,-6.843 -15.253,-15.257c-0,-8.411 6.843,-15.254 15.253,-15.254c8.415,0 15.261,6.843 15.261,15.254c0,8.414 -6.846,15.257 -15.261,15.257Z" style="fill:#0078a0;fill-rule:nonzero;"/><path d="M64.884,141.777c-2.789,0 -5.057,2.265 -5.057,5.051c-0,2.789 2.268,5.054 5.057,5.054c2.786,-0 5.051,-2.265 5.051,-5.054c-0,-2.786 -2.265,-5.051 -5.051,-5.051Zm0,20.308c-8.414,0 -15.26,-6.843 -15.26,-15.257c-0,-8.411 6.846,-15.254 15.26,-15.254c8.411,0 15.254,6.843 15.254,15.254c0,8.414 -6.843,15.257 -15.254,15.257Z" style="fill:#b7d1da;fill-rule:nonzero;"/><path d="M314.283,141.777c-2.789,0 -5.057,2.265 -5.057,5.051c-0,2.789 2.268,5.054 5.057,5.054c2.786,-0 5.051,-2.265 5.051,-5.054c-0,-2.786 -2.265,-5.051 -5.051,-5.051Zm0,20.308c-8.414,0 -15.26,-6.843 -15.26,-15.257c-0,-8.411 6.846,-15.254 15.26,-15.254c8.411,0 15.254,6.843 15.254,15.254c0,8.414 -6.843,15.257 -15.254,15.257Z" style="fill:#ef7a85;fill-rule:nonzero;"/></svg>