<?xml version="1.0" encoding="UTF-8" standalone="no"?>
<svg
   viewBox="0 0 215.07251 199.44091"
   version="1.1"
   id="svg139"
   sodipodi:docname="add class v2.svg"
   width="215.07251"
   height="199.4409"
   inkscape:version="1.1.1 (c3084ef, 2021-09-22)"
   xmlns:inkscape="http://www.inkscape.org/namespaces/inkscape"
   xmlns:sodipodi="http://sodipodi.sourceforge.net/DTD/sodipodi-0.dtd"
   xmlns="http://www.w3.org/2000/svg"
   xmlns:svg="http://www.w3.org/2000/svg">
  <sodipodi:namedview
     id="namedview141"
     pagecolor="#ffffff"
     bordercolor="#666666"
     borderopacity="1.0"
     inkscape:pageshadow="2"
     inkscape:pageopacity="0.0"
     inkscape:pagecheckerboard="0"
     showgrid="false"
     width="235.83px"
     fit-margin-top="0"
     fit-margin-left="0"
     fit-margin-right="0"
     fit-margin-bottom="0"
     inkscape:zoom="2.7774244"
     inkscape:cx="134.83715"
     inkscape:cy="99.552664"
     inkscape:window-width="1440"
     inkscape:window-height="847"
     inkscape:window-x="0"
     inkscape:window-y="25"
     inkscape:window-maximized="1"
     inkscape:current-layer="Layer_1" />
  <defs
     id="defs108">
    <style
       id="style96">.cls-1{isolation:isolate;}.cls-2{fill:url(#linear-gradient);}.cls-3{fill:#00628e;}.cls-4{fill:#bed1f9;opacity:0.1;mix-blend-mode:multiply;}.cls-5,.cls-9{fill:#0078a0;}.cls-6,.cls-8{fill:#e08087;}.cls-7{fill:url(#linear-gradient-2);}.cls-8{opacity:0.7;}.cls-9{opacity:0.4;}</style>
    <linearGradient
       id="linear-gradient"
       x1="116.71"
       y1="764.37"
       x2="116.71"
       y2="-5.0700002"
       gradientUnits="userSpaceOnUse">
      <stop
         offset="0"
         stop-color="#31779c"
         id="stop98" />
      <stop
         offset="1"
         stop-color="#31779c"
         stop-opacity="0"
         id="stop100" />
    </linearGradient>
    <linearGradient
       id="linear-gradient-2"
       x1="201.13"
       y1="263.48999"
       x2="201.13"
       y2="48.73"
       gradientUnits="userSpaceOnUse">
      <stop
         offset="0"
         stop-color="#c0cbce"
         id="stop103" />
      <stop
         offset="1"
         stop-color="#fff"
         id="stop105" />
    </linearGradient>
  </defs>
  <g
     class="cls-1"
     id="g137"
     transform="translate(5.3460887e-4,0.0093979)">
    <g
       id="Layer_1"
       data-name="Layer 1">
      <path
         class="cls-2"
         d="m 214.71,91.12 c -8,67.85 -150.08,128.23 -186.38,64.21 -26,-45.89 3.76,-92.84 33,-128.44 C 74.5,10.86 94.1,-4.08 114.21,1 c 13.39,3.39 22.25,15.1 33.41,22.28 20.68,13.33 58.83,22.09 65.92,49.77 a 48.83,48.83 0 0 1 1.17,18.07 z"
         id="path110"
         style="fill:url(#linear-gradient)" />
      <path
         class="cls-3"
         d="m 42.33,104.6 0.82,63.92 a 17.66,17.66 0 0 0 4.31,10.93 35.5,35.5 0 0 0 8.54,7.34 53.59,53.59 0 0 0 6.31,3.45 c 12.46,5.89 30,9.42 49.29,9.18 19.29,-0.24 36.71,-4.22 49,-10.42 11.64,-5.85 18.73,-13.68 18.63,-22.21 l -0.8,-63.92 -4.9,0.06 z"
         id="path112"
         style="fill:#007196;fill-opacity:1" />
      <path
         class="cls-4"
         d="m 47.46,179.45 a 35.5,35.5 0 0 0 8.54,7.34 53.59,53.59 0 0 0 6.31,3.45 c 12.46,5.89 30,9.42 49.29,9.18 19.29,-0.24 36.71,-4.22 49,-10.42 11.64,-5.85 18.73,-13.68 18.63,-22.21 l -0.8,-63.92 -4.9,0.06 A 152.74,152.74 0 0 1 168,127.86 c -4.6,14.19 -12.32,27.74 -24.06,36.94 -18.89,14.83 -44.79,16.28 -68.81,15.9 -9.22,-0.15 -18.48,-0.48 -27.67,-1.25 z"
         id="path114" />
      <polygon
         class="cls-3"
         points="214.92,108.57 214.94,110.13 214.94,110.13 109.41,159.41 2.67,112.81 2.67,112.81 2.65,111.26 6.79,111.21 108.3,63.82 210.98,108.62 "
         id="polygon116"
         style="fill:#006f95;fill-opacity:1" />
      <polygon
         class="cls-5"
         points="109.49,157.56 2.69,110.97 108.27,61.68 215.07,108.28 "
         id="polygon118"
         style="fill:#0081ad;fill-opacity:1"
         transform="translate(-0.15,0.29)" />
      <path
         class="cls-6"
         d="m 4.17,177.51 a 1.29,1.29 0 0 0 1.33,-1.3 L 4.7,113.37 a 2.74,2.74 0 0 1 2.65,-2.79 l 101.52,-1.28 a 1.24,1.24 0 1 0 0,-2.46 L 7.32,108.12 A 5.23,5.23 0 0 0 2,113.4 l 0.79,62.84 a 1.3,1.3 0 0 0 1.38,1.27 z"
         id="path120"
         style="fill:#ef7a85;fill-opacity:1" />
      <path
         class="cls-5"
         d="m 0.45,166.14 1.17,-2 a 2.59,2.59 0 0 1 2.24,-1.14 2.57,2.57 0 0 1 2.22,1.21 l 1,2 a 3,3 0 0 1 0.29,1.59 l 0.22,17.09 c 0,0.37 -1.56,0.69 -3.7,0.72 C 1.75,185.64 0.22,185.34 0.22,185 L 0,167.83 a 3.18,3.18 0 0 1 0.45,-1.69 z"
         id="path122"
         style="fill:#0086b4;fill-opacity:1" />
      <path
         class="cls-8"
         d="m 166.3,24.39 c 0,0 0.32,3.19 2.84,3.41 -2.52,0.22 -2.84,3.41 -2.84,3.41 0,0 -0.3,-3.21 -2.84,-3.41 2.54,-0.22 2.84,-3.41 2.84,-3.41 z"
         id="path128" />
      <path
         class="cls-8"
         d="m 13.31,80.62 c 0,0 0.32,3.19 2.84,3.42 -2.52,0.22 -2.84,3.41 -2.84,3.41 0,0 -0.31,-3.19 -2.84,-3.45 2.53,-0.19 2.84,-3.38 2.84,-3.38 z"
         id="path130" />
      <path
         class="cls-9"
         d="m 77.37,35.91 c 0,0 0.5,5 4.45,5.35 -3.95,0.34 -4.45,5.34 -4.45,5.34 0,0 -0.51,-5 -4.46,-5.34 3.95,-0.35 4.46,-5.35 4.46,-5.35 z"
         id="path132" />
      <path
         class="cls-9"
         d="m 203.91,150.64 c 0,0 0.28,2.75 2.45,2.94 -2.17,0.19 -2.45,2.93 -2.45,2.93 0,0 -0.28,-2.74 -2.45,-2.93 2.17,-0.19 2.45,-2.94 2.45,-2.94 z"
         id="path134" />
    </g>
  </g>
</svg>
