<?xml version="1.0" encoding="UTF-8" standalone="no"?><!DOCTYPE svg PUBLIC "-//W3C//DTD SVG 1.1//EN" "http://www.w3.org/Graphics/SVG/1.1/DTD/svg11.dtd"><svg width="100%" height="100%" viewBox="0 0 220 180" version="1.1" xmlns="http://www.w3.org/2000/svg" xmlns:xlink="http://www.w3.org/1999/xlink" xml:space="preserve" xmlns:serif="http://www.serif.com/" style="fill-rule:evenodd;clip-rule:evenodd;stroke-linejoin:round;stroke-miterlimit:2;"><g><path d="M44.33,85.17l0.82,63.92c0.147,4.028 1.669,7.886 4.31,10.93c2.438,2.885 5.321,5.363 8.54,7.34c2.024,1.29 4.132,2.443 6.31,3.45c12.46,5.89 30,9.42 49.29,9.18c19.29,-0.24 36.71,-4.22 49,-10.42c11.64,-5.85 18.73,-13.68 18.63,-22.21l-0.8,-63.92l-4.9,0.06l-131.2,1.67Z" style="fill:#00668b;fill-rule:nonzero;"/><path d="M49.46,160.02c2.438,2.885 5.321,5.363 8.54,7.34c2.024,1.29 4.132,2.443 6.31,3.45c12.46,5.89 30,9.42 49.29,9.18c19.29,-0.24 36.71,-4.22 49,-10.42c11.64,-5.85 18.73,-13.68 18.63,-22.21l-0.8,-63.92l-4.9,0.06c-1.144,8.45 -2.994,16.789 -5.53,24.93c-4.6,14.19 -12.32,27.74 -24.06,36.94c-18.89,14.83 -44.79,16.28 -68.81,15.9c-9.22,-0.15 -18.48,-0.48 -27.67,-1.25Z" style="fill:#bed1f9;fill-opacity:0.1;fill-rule:nonzero;"/><path d="M8.79,91.78l101.51,-47.39l102.68,44.8l3.94,-0.05l0.02,1.56l-105.53,49.28l-106.74,-46.6l-0.02,-1.55l4.14,-0.05Z" style="fill:#00628e;fill-rule:nonzero;"/><path d="M110.27,42.25l106.8,46.6l-105.58,49.28l-106.8,-46.59l105.58,-49.29Z" style="fill:#0085b2;fill-rule:nonzero;"/><path d="M6.17,158.08c0.013,0 0.027,0.001 0.04,0.001c0.708,-0 1.29,-0.583 1.29,-1.29c0,-0.004 0,-0.007 0,-0.011l-0.8,-62.84c-0.028,-1.488 1.162,-2.741 2.65,-2.79l101.52,-1.28c0.052,0.007 0.105,0.01 0.157,0.01c0.68,-0 1.24,-0.56 1.24,-1.24c0,-0.68 -0.56,-1.24 -1.24,-1.24c-0.052,-0 -0.105,0.003 -0.157,0.01l-101.55,1.28c-0.03,-0.001 -0.06,-0.001 -0.09,-0.001c-2.869,0 -5.23,2.361 -5.23,5.23c-0,0.017 -0,0.034 0,0.051l0.79,62.84c0.015,0.703 0.597,1.272 1.3,1.272c0.026,0 0.053,-0 0.08,-0.002Z" style="fill:#ef7a85;fill-rule:nonzero;"/><path d="M2.45,146.71l1.17,-2c0.499,-0.74 1.348,-1.172 2.24,-1.14c0.9,-0.014 1.744,0.446 2.22,1.21l1,2c0.24,0.493 0.341,1.043 0.29,1.59l0.22,17.09c0,0.37 -1.56,0.69 -3.7,0.72c-2.14,0.03 -3.67,-0.27 -3.67,-0.61l-0.22,-17.17c-0.011,-0.594 0.145,-1.18 0.45,-1.69Z" style="fill:#09c;fill-rule:nonzero;"/><path d="M168.3,4.96c0,-0 0.32,3.19 2.84,3.41c-2.52,0.22 -2.84,3.41 -2.84,3.41c0,-0 -0.3,-3.21 -2.84,-3.41c2.54,-0.22 2.84,-3.41 2.84,-3.41Z" style="fill:#ef7a85;fill-opacity:0.7;fill-rule:nonzero;"/><path d="M15.31,61.19c0,0 0.32,3.19 2.84,3.42c-2.52,0.22 -2.84,3.41 -2.84,3.41c0,0 -0.31,-3.19 -2.84,-3.45c2.53,-0.19 2.84,-3.38 2.84,-3.38Z" style="fill:#ef7a85;fill-opacity:0.7;fill-rule:nonzero;"/><path d="M79.37,16.48c0,-0 0.5,5 4.45,5.35c-3.95,0.34 -4.45,5.34 -4.45,5.34c0,-0 -0.51,-5 -4.46,-5.34c3.95,-0.35 4.46,-5.35 4.46,-5.35Z" style="fill:#09c;fill-opacity:0.4;fill-rule:nonzero;"/><path d="M205.91,131.21c0,-0 0.28,2.75 2.45,2.94c-2.17,0.19 -2.45,2.93 -2.45,2.93c0,-0 -0.28,-2.74 -2.45,-2.93c2.17,-0.19 2.45,-2.94 2.45,-2.94Z" style="fill:#09c;fill-rule:nonzero;"/></g></svg>