<svg xmlns="http://www.w3.org/2000/svg" xmlns:xlink="http://www.w3.org/1999/xlink" viewBox="0 0 235.83 199.43"><defs><style>.cls-1{isolation:isolate;}.cls-2{fill:url(#linear-gradient);}.cls-3{fill:#00628e;}.cls-4{fill:#bed1f9;opacity:0.1;mix-blend-mode:multiply;}.cls-5,.cls-9{fill:#0078a0;}.cls-6,.cls-8{fill:#e08087;}.cls-7{fill:url(#linear-gradient-2);}.cls-8{opacity:0.7;}.cls-9{opacity:0.4;}</style><linearGradient id="linear-gradient" x1="116.71" y1="764.37" x2="116.71" y2="-5.07" gradientUnits="userSpaceOnUse"><stop offset="0" stop-color="#31779c"/><stop offset="1" stop-color="#31779c" stop-opacity="0"/></linearGradient><linearGradient id="linear-gradient-2" x1="201.13" y1="263.49" x2="201.13" y2="48.73" gradientUnits="userSpaceOnUse"><stop offset="0" stop-color="#c0cbce"/><stop offset="1" stop-color="#fff"/></linearGradient></defs><g class="cls-1"><g id="Layer_1" data-name="Layer 1"><path class="cls-2" d="M214.71,91.12c-8,67.85-150.08,128.23-186.38,64.21-26-45.89,3.76-92.84,33-128.44C74.5,10.86,94.1-4.08,114.21,1c13.39,3.39,22.25,15.1,33.41,22.28,20.68,13.33,58.83,22.09,65.92,49.77A48.83,48.83,0,0,1,214.71,91.12Z"/><path class="cls-3" d="M42.33,104.6l.82,63.92a17.66,17.66,0,0,0,4.31,10.93A35.5,35.5,0,0,0,56,186.79a53.59,53.59,0,0,0,6.31,3.45c12.46,5.89,30,9.42,49.29,9.18s36.71-4.22,49-10.42c11.64-5.85,18.73-13.68,18.63-22.21l-.8-63.92-4.9.06Z"/><path class="cls-4" d="M47.46,179.45A35.5,35.5,0,0,0,56,186.79a53.59,53.59,0,0,0,6.31,3.45c12.46,5.89,30,9.42,49.29,9.18s36.71-4.22,49-10.42c11.64-5.85,18.73-13.68,18.63-22.21l-.8-63.92-4.9.06A152.74,152.74,0,0,1,168,127.86c-4.6,14.19-12.32,27.74-24.06,36.94-18.89,14.83-44.79,16.28-68.81,15.9C65.91,180.55,56.65,180.22,47.46,179.45Z"/><polygon class="cls-3" points="6.79 111.21 108.3 63.82 210.98 108.62 214.92 108.57 214.94 110.13 214.94 110.13 109.41 159.41 2.67 112.81 2.67 112.81 2.65 111.26 6.79 111.21"/><polygon class="cls-5" points="108.27 61.68 215.07 108.28 109.49 157.56 2.69 110.97 108.27 61.68"/><path class="cls-6" d="M4.17,177.51a1.29,1.29,0,0,0,1.33-1.3l-.8-62.84a2.74,2.74,0,0,1,2.65-2.79l101.52-1.28a1.24,1.24,0,1,0,0-2.46L7.32,108.12A5.23,5.23,0,0,0,2,113.4l.79,62.84A1.3,1.3,0,0,0,4.17,177.51Z"/><path class="cls-5" d="M.45,166.14l1.17-2A2.59,2.59,0,0,1,3.86,163a2.57,2.57,0,0,1,2.22,1.21l1,2a3,3,0,0,1,.29,1.59l.22,17.09c0,.37-1.56.69-3.7.72S.22,185.34.22,185L0,167.83A3.18,3.18,0,0,1,.45,166.14Z"/><circle class="cls-7" cx="201.13" cy="87.93" r="34.7"/><path class="cls-6" d="M214.12,85.3l-8.77-.25.24-8.77a3.8,3.8,0,0,0-3.7-3.91h0a3.82,3.82,0,0,0-3.92,3.7l-.24,8.77L189,84.6a3.8,3.8,0,0,0-3.91,3.7h0a3.8,3.8,0,0,0,3.7,3.91l8.77.25-.24,8.77a3.8,3.8,0,0,0,3.7,3.91h0a3.81,3.81,0,0,0,3.91-3.7l.25-8.77,8.77.24a3.81,3.81,0,0,0,3.91-3.7h0A3.8,3.8,0,0,0,214.12,85.3Z"/><path class="cls-8" d="M166.3,24.39s.32,3.19,2.84,3.41c-2.52.22-2.84,3.41-2.84,3.41S166,28,163.46,27.8C166,27.58,166.3,24.39,166.3,24.39Z"/><path class="cls-8" d="M13.31,80.62s.32,3.19,2.84,3.42c-2.52.22-2.84,3.41-2.84,3.41S13,84.26,10.47,84C13,83.81,13.31,80.62,13.31,80.62Z"/><path class="cls-9" d="M77.37,35.91s.5,5,4.45,5.35c-3.95.34-4.45,5.34-4.45,5.34s-.51-5-4.46-5.34C76.86,40.91,77.37,35.91,77.37,35.91Z"/><path class="cls-9" d="M203.91,150.64s.28,2.75,2.45,2.94c-2.17.19-2.45,2.93-2.45,2.93s-.28-2.74-2.45-2.93C203.63,153.39,203.91,150.64,203.91,150.64Z"/></g></g></svg>