<?xml version="1.0" encoding="UTF-8" standalone="no"?><!DOCTYPE svg PUBLIC "-//W3C//DTD SVG 1.1//EN" "http://www.w3.org/Graphics/SVG/1.1/DTD/svg11.dtd"><svg width="100%" height="100%" viewBox="0 0 263 172" version="1.1" xmlns="http://www.w3.org/2000/svg" xmlns:xlink="http://www.w3.org/1999/xlink" xml:space="preserve" xmlns:serif="http://www.serif.com/" style="fill-rule:evenodd;clip-rule:evenodd;stroke-linejoin:round;stroke-miterlimit:2;"><g><path d="M242.23,130.5l7.74,0c-1.348,-0.892 -2.933,-1.363 -4.55,-1.35l-193.2,0c-10.11,0 -18.3,7.11 -18.3,15.88l0,10.09c0,8.77 8.19,15.88 18.3,15.88l191,-0.06l-0.99,-40.44Z" style="fill:#00668b;fill-rule:nonzero;"/><path d="M132.57,129.19c-9.67,0 -17.5,6.8 -17.5,15.18l0,11.4c0,8.39 7.83,15.19 17.5,15.19l120.25,0l0,-2.55l-0.5,0l-30.57,-2.51l-6.18,-21c0,0 11.93,-11.62 12.71,-11.92c0.78,-0.3 24,-1.21 24,-1.21l0.5,0l0,-2.53l-120.21,-0.05Z" style="fill:#c1e8ff;fill-rule:nonzero;"/><path d="M245.02,150c0,-12.3 7.32,-18.26 7.32,-18.26l-117.31,0c-8.88,0 -16.07,6.24 -16.07,13.95l0,8.77c0,7.7 7.19,13.95 16.07,13.95l117.31,0c0,0 -7.32,-2.93 -7.32,-18.41Z" style="fill:url(#_Linear1);fill-rule:nonzero;"/><path d="M118.97,145.69l0,8.77c0.001,1.132 0.155,2.259 0.46,3.35c4,-8.41 11.54,-16.5 26,-19.1c33.7,-6.07 106.94,-7 106.94,-7l-117.34,0c-8.88,0.06 -16.06,6.27 -16.06,13.98Z" style="fill-opacity:0.05;fill-rule:nonzero;"/><path d="M250.47,89.07l7.71,0c-1.352,-0.894 -2.94,-1.364 -4.56,-1.35l-193.17,0c-10.1,0 -18.3,7.11 -18.3,15.88l0,10.08c0,8.77 8.2,15.88 18.3,15.88l191,0l-0.98,-40.49Z" style="fill:#09c;fill-rule:nonzero;"/><path d="M140.8,87.77c-9.66,0 -17.5,6.8 -17.5,15.19l0,11.4c0,8.39 7.84,15.19 17.5,15.19l120.25,0l0,-2.55l-0.49,-0l-30.59,-2.54l-6.18,-21c0,0 11.92,-11.63 12.7,-11.93c0.78,-0.3 24,-1.21 24,-1.21l0.49,0l0,-2.55l-120.18,0Z" style="fill:#00668b;fill-rule:nonzero;"/><path d="M253.25,108.57c0,-12.3 7.33,-18.27 7.33,-18.27l-117.31,0c-8.88,0 -16.08,6.25 -16.08,14l0,8.78c0,7.7 7.2,14 16.08,14l117.31,0c0,0 -7.33,-3.03 -7.33,-18.51Z" style="fill:url(#_Linear2);fill-rule:nonzero;"/><path d="M127.19,104.25l0,8.78c0.003,1.13 0.161,2.253 0.47,3.34c4,-8.4 11.54,-16.49 26,-19.09c33.7,-6.08 106.94,-7 106.94,-7l-117.33,0c-8.88,0.02 -16.08,6.27 -16.08,13.97Z" style="fill-opacity:0.05;fill-rule:nonzero;"/><path d="M25.362,156.491l18.523,0.515l4.303,-155.031l-18.523,-0.514l-4.303,155.03Z" style="fill:url(#_Linear3);"/><path d="M29.483,8.076l7.067,0.196l0.036,-1.299l-7.067,-0.197l-0.036,1.3Z" style="fill:#bcbcbc;"/><path d="M29.397,11.49l7.068,0.196l0.036,-1.299l-7.068,-0.197l-0.036,1.3Z" style="fill:#bcbcbc;"/><path d="M29.297,14.894l7.068,0.198l0.036,-1.3l-7.067,-0.197l-0.037,1.299Z" style="fill:#bcbcbc;"/><path d="M29.101,21.732l7.067,0.196l0.036,-1.3l-7.067,-0.196l-0.036,1.3Z" style="fill:#bcbcbc;"/><path d="M29.016,25.146l7.067,0.196l0.036,-1.3l-7.067,-0.196l-0.036,1.3Z" style="fill:#bcbcbc;"/><path d="M28.91,28.55l7.068,0.196l0.036,-1.3l-7.068,-0.196l-0.036,1.3Z" style="fill:#bcbcbc;"/><path d="M28.72,35.367l7.067,0.197l0.036,-1.3l-7.067,-0.196l-0.036,1.299Z" style="fill:#bcbcbc;"/><path d="M28.634,38.782l7.067,0.196l0.037,-1.3l-7.068,-0.196l-0.036,1.3Z" style="fill:#bcbcbc;"/><path d="M28.539,42.196l7.067,0.198l0.037,-1.3l-7.068,-0.197l-0.036,1.299Z" style="fill:#bcbcbc;"/><path d="M28.338,49.013l7.067,0.196l0.037,-1.299l-7.068,-0.196l-0.036,1.299Z" style="fill:#bcbcbc;"/><path d="M28.253,52.427l7.067,0.197l0.036,-1.3l-7.067,-0.196l-0.036,1.299Z" style="fill:#bcbcbc;"/><path d="M28.157,55.841l7.068,0.196l0.036,-1.299l-7.068,-0.196l-0.036,1.299Z" style="fill:#bcbcbc;"/><path d="M27.97,62.66l7.068,0.197l0.036,-1.299l-7.067,-0.197l-0.037,1.299Z" style="fill:#bcbcbc;"/><path d="M27.871,66.083l7.067,0.196l0.036,-1.299l-7.067,-0.196l-0.036,1.299Z" style="fill:#bcbcbc;"/><path d="M27.776,69.487l7.067,0.196l0.036,-1.299l-7.067,-0.197l-0.036,1.3Z" style="fill:#bcbcbc;"/><path d="M27.585,76.315l7.067,0.196l0.036,-1.299l-7.067,-0.197l-0.036,1.3Z" style="fill:#bcbcbc;"/><path d="M27.49,79.729l7.067,0.196l0.036,-1.299l-7.067,-0.197l-0.036,1.3Z" style="fill:#bcbcbc;"/><path d="M27.394,83.133l7.068,0.196l0.036,-1.3l-7.068,-0.196l-0.036,1.3Z" style="fill:#bcbcbc;"/><path d="M27.222,89.952l7.068,0.197l0.036,-1.299l-7.067,-0.198l-0.037,1.3Z" style="fill:#bcbcbc;"/><path d="M27.108,93.365l7.068,0.196l0.036,-1.3l-7.068,-0.196l-0.036,1.3Z" style="fill:#bcbcbc;"/><path d="M27.013,96.779l7.067,0.196l0.036,-1.3l-7.067,-0.196l-0.036,1.3Z" style="fill:#bcbcbc;"/><path d="M26.843,103.598l7.067,0.197l0.037,-1.299l-7.068,-0.198l-0.036,1.3Z" style="fill:#bcbcbc;"/><path d="M26.748,107.012l7.067,0.197l0.037,-1.299l-7.068,-0.198l-0.036,1.3Z" style="fill:#bcbcbc;"/><path d="M26.654,110.416l7.067,0.197l0.036,-1.299l-7.067,-0.198l-0.036,1.3Z" style="fill:#bcbcbc;"/><path d="M26.451,117.252l7.067,0.196l0.036,-1.299l-7.067,-0.196l-0.036,1.299Z" style="fill:#bcbcbc;"/><path d="M26.355,120.666l7.067,0.197l0.037,-1.3l-7.068,-0.196l-0.036,1.299Z" style="fill:#bcbcbc;"/><path d="M26.264,124.072l7.068,0.197l0.036,-1.299l-7.067,-0.198l-0.037,1.3Z" style="fill:#bcbcbc;"/><path d="M26.059,130.908l7.067,0.196l0.036,-1.299l-7.067,-0.196l-0.036,1.299Z" style="fill:#bcbcbc;"/><path d="M25.974,134.302l7.067,0.196l0.036,-1.299l-7.067,-0.196l-0.036,1.299Z" style="fill:#bcbcbc;"/><path d="M25.868,137.716l7.068,0.196l0.036,-1.299l-7.068,-0.197l-0.036,1.3Z" style="fill:#bcbcbc;"/><path d="M25.678,144.544l7.067,0.196l0.036,-1.299l-7.067,-0.197l-0.036,1.3Z" style="fill:#bcbcbc;"/><path d="M25.592,147.958l7.067,0.196l0.036,-1.299l-7.067,-0.197l-0.036,1.3Z" style="fill:#bcbcbc;"/><path d="M25.497,151.372l7.067,0.196l0.036,-1.3l-7.067,-0.196l-0.036,1.3Z" style="fill:#bcbcbc;"/><path d="M25.775,141.14l10.316,0.286l0.036,-1.299l-10.316,-0.287l-0.036,1.3Z" style="fill:#bcbcbc;"/><path d="M25.404,154.786l10.316,0.286l0.036,-1.299l-10.316,-0.287l-0.036,1.3Z" style="fill:#bcbcbc;"/><path d="M29.58,4.672l10.316,0.286l0.037,-1.299l-10.317,-0.287l-0.036,1.3Z" style="fill:#bcbcbc;"/><path d="M29.199,18.308l10.316,0.286l0.036,-1.299l-10.316,-0.287l-0.036,1.3Z" style="fill:#bcbcbc;"/><path d="M28.827,31.963l10.316,0.287l0.036,-1.3l-10.316,-0.286l-0.036,1.299Z" style="fill:#bcbcbc;"/><path d="M28.446,45.609l10.316,0.287l0.036,-1.3l-10.316,-0.286l-0.036,1.299Z" style="fill:#bcbcbc;"/><path d="M28.065,59.255l10.316,0.286l0.036,-1.299l-10.316,-0.286l-0.036,1.299Z" style="fill:#bcbcbc;"/><path d="M27.683,72.901l10.316,0.286l0.036,-1.299l-10.316,-0.287l-0.036,1.3Z" style="fill:#bcbcbc;"/><path d="M27.301,86.547l10.317,0.286l0.036,-1.299l-10.316,-0.287l-0.037,1.3Z" style="fill:#bcbcbc;"/><path d="M26.92,100.192l10.316,0.287l0.036,-1.3l-10.316,-0.286l-0.036,1.299Z" style="fill:#bcbcbc;"/><path d="M26.548,113.838l10.316,0.287l0.037,-1.3l-10.317,-0.286l-0.036,1.299Z" style="fill:#bcbcbc;"/><path d="M26.157,127.484l10.316,0.286l0.036,-1.299l-10.316,-0.286l-0.036,1.299Z" style="fill:#bcbcbc;"/><path d="M35.043,149.737l7.7,1.241l17.62,-109.268l-7.701,-1.242l-17.619,109.269Z" style="fill:#09c;"/><path d="M52.681,40.453l7.7,1.243l0.233,-1.441l-7.701,-1.243l-0.232,1.441Z" style="fill:#fff;"/><path d="M52.91,39.02l7.7,1.25l0.15,-1c0.34,-2.112 -1.118,-4.13 -3.23,-4.47c-2.111,-0.334 -4.125,1.121 -4.47,3.23l-0.15,0.99Z" style="fill:#ef7a85;fill-rule:nonzero;"/><path d="M35.05,149.72l1.17,4.51l1.25,4.94l2.75,-4.27l2.53,-3.94l-7.7,-1.24Z" style="fill:#e59470;fill-rule:nonzero;"/><path d="M36.22,154.23l1.25,4.94l2.75,-4.27c-0.602,-0.398 -1.285,-0.658 -2,-0.76c-0.666,-0.105 -1.346,-0.075 -2,0.09Z" style="fill:#ffd41d;fill-rule:nonzero;"/><path d="M35.046,149.719l3.85,0.621l17.638,-109.265l-3.85,-0.622l-17.638,109.266Z" style="fill:#09c;"/><path d="M36.979,150.037l3.851,0.621l17.638,-109.265l-3.85,-0.622l-17.639,109.266Z" style="fill:#00668b;"/><path d="M26.289,20.841l-7.789,0.419l5.947,110.52l7.789,-0.419l-5.947,-110.52Z" style="fill:#09c;"/><path d="M32.237,131.36l-7.789,0.419l0.079,1.458l7.789,-0.42l-0.079,-1.457Z" style="fill:#99735e;"/><path d="M32.32,132.82l-7.79,0.42l0,1c0.108,2.054 1.828,3.686 3.885,3.686c0.071,-0 0.143,-0.002 0.215,-0.006c2.079,-0.075 3.749,-1.807 3.749,-3.887c-0,-0.088 -0.003,-0.176 -0.009,-0.263l-0.05,-0.95Z" style="fill:#e8613d;fill-rule:nonzero;"/><path d="M26.29,20.85l-2.1,-4.16l-2.27,-4.56l-1.78,4.76l-1.64,4.38l7.79,-0.42Z" style="fill:#e59470;fill-rule:nonzero;"/><path d="M24.19,16.69l-2.22,-4.56l-1.78,4.76c0.662,0.256 1.371,0.369 2.08,0.33c0.669,-0.049 1.321,-0.229 1.92,-0.53Z" style="fill:#00668b;fill-rule:nonzero;"/><path d="M26.289,20.832l-3.894,0.211l5.966,110.519l3.894,-0.21l-5.966,-110.52Z" style="fill:#09c;"/><path d="M24.342,20.946l-3.895,0.209l5.947,110.521l3.895,-0.21l-5.947,-110.52Z" style="fill:#00668b;"/><path d="M14,29.86l-12.478,1.517l4.117,33.87l12.478,-1.516l-4.117,-33.871Z" style="fill:#ef7a85;"/><path d="M18.118,63.733l-12.478,1.517l9.479,77.986l12.478,-1.517l-9.479,-77.986Z" style="fill:url(#_Linear4);"/><path d="M18.36,65.781l-12.478,1.517l0.442,3.633l12.478,-1.516l-0.442,-3.634Z"/><path d="M5.693,30.872l-4.179,0.508l13.594,111.846l4.18,-0.508l-13.595,-111.846Z" style="fill:#fff;fill-opacity:0.31;"/><path d="M59.41,92.13l-6.84,72.83l-0.52,5.67l-42.33,0l-7.36,-78.5l57.05,0Z" style="fill:#b8bfc1;fill-rule:nonzero;"/><path d="M59.41,92.13l-6.84,72.83l-3.51,0c-17.957,-0.008 -33.142,-13.833 -34.83,-31.71l-3.86,-41.12l49.04,0Z" style="fill:url(#_Linear5);fill-rule:nonzero;"/><path d="M178.462,59.707c0,0 0.32,3.19 2.84,3.41c-2.52,0.22 -2.84,3.41 -2.84,3.41c0,0 -0.33,-3.19 -2.84,-3.41c2.51,-0.22 2.84,-3.41 2.84,-3.41Z" style="fill:#ef7a85;fill-rule:nonzero;"/><path d="M130.66,11.826c-0,-0 0.5,5 4.45,5.35c-4,0.34 -4.45,5.34 -4.45,5.34c-0,-0 -0.51,-5 -4.45,-5.34c3.94,-0.35 4.45,-5.35 4.45,-5.35Z" style="fill:#09c;fill-rule:nonzero;"/><path d="M256.227,52.332c0,-0 0.28,2.75 2.45,2.94c-2.17,0.19 -2.45,2.94 -2.45,2.94c0,-0 -0.27,-2.75 -2.44,-2.94c2.17,-0.19 2.44,-2.94 2.44,-2.94Z" style="fill:#09c;fill-rule:nonzero;"/></g><defs><linearGradient id="_Linear1" x1="0" y1="0" x2="1" y2="0" gradientUnits="userSpaceOnUse" gradientTransform="matrix(733.29,-411.14,411.14,733.29,-433.33,500.3)"><stop offset="0" style="stop-color:#c0cbce;stop-opacity:1"/><stop offset="1" style="stop-color:#fff;stop-opacity:1"/></linearGradient><linearGradient id="_Linear2" x1="0" y1="0" x2="1" y2="0" gradientUnits="userSpaceOnUse" gradientTransform="matrix(97813.6,-15121.7,15121.7,97813.6,-57230.5,18058.1)"><stop offset="0" style="stop-color:#c0cbce;stop-opacity:1"/><stop offset="1" style="stop-color:#fff;stop-opacity:1"/></linearGradient><linearGradient id="_Linear3" x1="0" y1="0" x2="1" y2="0" gradientUnits="userSpaceOnUse" gradientTransform="matrix(-4115.28,-18856.8,18856.8,-4115.28,2278.12,-1576.67)"><stop offset="0" style="stop-color:#00668b;stop-opacity:1"/><stop offset="1" style="stop-color:#31779c;stop-opacity:0"/></linearGradient><linearGradient id="_Linear4" x1="0" y1="0" x2="1" y2="0" gradientUnits="userSpaceOnUse" gradientTransform="matrix(296.999,173.492,-173.492,296.999,1436.54,9259.87)"><stop offset="0" style="stop-color:#c0cbce;stop-opacity:1"/><stop offset="1" style="stop-color:#cfdde3;stop-opacity:1"/></linearGradient><linearGradient id="_Linear5" x1="0" y1="0" x2="1" y2="0" gradientUnits="userSpaceOnUse" gradientTransform="matrix(-506.093,-7108.21,7108.21,-506.093,3292.62,17116.1)"><stop offset="0" style="stop-color:#c0cbce;stop-opacity:1"/><stop offset="1" style="stop-color:#cfdde3;stop-opacity:1"/></linearGradient></defs></svg>