<?xml version="1.0" encoding="UTF-8" standalone="no"?>
<svg
   viewBox="0 0 282.53 187.23"
   version="1.1"
   id="svg1651"
   sodipodi:docname="no-task.svg"
   inkscape:version="1.1.1 (c3084ef, 2021-09-22)"
   xmlns:inkscape="http://www.inkscape.org/namespaces/inkscape"
   xmlns:sodipodi="http://sodipodi.sourceforge.net/DTD/sodipodi-0.dtd"
   xmlns:xlink="http://www.w3.org/1999/xlink"
   xmlns="http://www.w3.org/2000/svg"
   xmlns:svg="http://www.w3.org/2000/svg">
  <sodipodi:namedview
     id="namedview1653"
     pagecolor="#ffffff"
     bordercolor="#666666"
     borderopacity="1.0"
     inkscape:pageshadow="2"
     inkscape:pageopacity="0.0"
     inkscape:pagecheckerboard="0"
     showgrid="false"
     inkscape:zoom="2.5944148"
     inkscape:cx="141.265"
     inkscape:cy="93.47002"
     inkscape:window-width="1440"
     inkscape:window-height="847"
     inkscape:window-x="0"
     inkscape:window-y="25"
     inkscape:window-maximized="1"
     inkscape:current-layer="Layer_1" />
  <defs
     id="defs1482">
    <style
       id="style1460">.cls-1{isolation:isolate;}.cls-2,.cls-8{opacity:0.6;}.cls-2{fill:url(#linear-gradient);}.cls-21,.cls-3{fill:#e08087;}.cls-4{fill:#ebaeb3;}.cls-5{fill:url(#linear-gradient-2);}.cls-10,.cls-6{fill:#00628e;}.cls-6{opacity:0.05;}.cls-7{fill:url(#linear-gradient-3);}.cls-8{fill:url(#linear-gradient-4);}.cls-9{fill:#bcbcbc;}.cls-11{fill:url(#linear-gradient-5);}.cls-12{fill:#e59470;}.cls-13{fill:#ffd41d;}.cls-14,.cls-22{fill:#0078a0;}.cls-15{fill:#99735e;}.cls-16{fill:#e8613d;}.cls-17{fill:url(#linear-gradient-6);}.cls-18{fill:#c7d6e2;mix-blend-mode:soft-light;}.cls-19{fill:#b8bfc1;}.cls-20{fill:url(#linear-gradient-7);}.cls-21{opacity:0.7;}.cls-22{opacity:0.4;}.cls-23{fill:url(#linear-gradient-8);}</style>
    <linearGradient
       id="linear-gradient"
       x1="-235.29"
       y1="-5.23"
       x2="-235.29"
       y2="-502.7"
       gradientTransform="translate(261.23 543.54) rotate(16.35)"
       gradientUnits="userSpaceOnUse">
      <stop
         offset="0"
         stop-color="#31779c"
         id="stop1462" />
      <stop
         offset="1"
         stop-color="#31779c"
         stop-opacity="0"
         id="stop1464" />
    </linearGradient>
    <linearGradient
       id="linear-gradient-2"
       x1="-414.3"
       y1="516.53"
       x2="318.99"
       y2="105.39"
       gradientUnits="userSpaceOnUse">
      <stop
         offset="0"
         stop-color="#c0cbce"
         id="stop1467" />
      <stop
         offset="1"
         stop-color="#fff"
         id="stop1469" />
    </linearGradient>
    <linearGradient
       id="linear-gradient-3"
       x1="-430"
       y1="488.52"
       x2="303.29"
       y2="77.38"
       xlink:href="#linear-gradient-2" />
    <linearGradient
       id="linear-gradient-4"
       x1="227.16"
       y1="184.12"
       x2="-19.63"
       y2="56.42"
       gradientTransform="translate(114.25 189.32) rotate(178.41)"
       xlink:href="#linear-gradient" />
    <linearGradient
       id="linear-gradient-5"
       x1="71.7"
       y1="56.59"
       x2="79.64"
       y2="56.59"
       gradientTransform="translate(159.39 100.41) rotate(170.83)"
       gradientUnits="userSpaceOnUse">
      <stop
         offset="0"
         stop-color="#c0cbce"
         id="stop1474" />
      <stop
         offset="1"
         stop-color="#cfdde3"
         id="stop1476" />
    </linearGradient>
    <linearGradient
       id="linear-gradient-6"
       x1="24.67"
       y1="119.71"
       x2="46.62"
       y2="119.71"
       gradientTransform="translate(14.7 -3.43) rotate(6.93)"
       xlink:href="#linear-gradient-5" />
    <linearGradient
       id="linear-gradient-7"
       x1="66.93"
       y1="233.75"
       x2="56.61"
       y2="136.15"
       gradientTransform="matrix(1, 0, 0, 1, 0, 0)"
       xlink:href="#linear-gradient-5" />
    <linearGradient
       id="linear-gradient-8"
       x1="28.56"
       y1="264.07"
       x2="28.56"
       y2="117.5"
       xlink:href="#linear-gradient-2" />
    <linearGradient
       inkscape:collect="always"
       xlink:href="#linear-gradient"
       id="linearGradient1895"
       gradientUnits="userSpaceOnUse"
       gradientTransform="matrix(1.031138,0.28150419,-0.30250288,0.95956,261.07249,543.54)"
       x1="-235.29"
       y1="-5.23"
       x2="-235.29"
       y2="-502.7" />
  </defs>
  <g
     class="cls-1"
     id="g1649">
    <g
       id="Layer_1"
       data-name="Layer 1">
      <path
         class="cls-2"
         d="M 161.96265,179.91 C 80.293456,189.84 -15.603366,147.13 18.772915,81.16 29.196483,61.16 48.163077,45.85 69.106926,35.16 105.39599,16.55 161.96265,-4.6 204.07601,0.88 c 37.61081,4.9 57.52305,44.52 59.1027,76.17 3.35274,64.95 -45.62729,96.09 -101.21606,102.86 z"
         id="path1484"
         style="fill:url(#linearGradient1895);stroke-width:1.03663" />
      <path
         class="cls-3"
         d="M261.26,146.73H269a8.13,8.13,0,0,0-4.55-1.35H71.25c-10.11,0-18.3,7.11-18.3,15.88v10.09c0,8.77,8.19,15.88,18.3,15.88l191-.06Z"
         id="path1486" />
      <path
         class="cls-4"
         d="M151.6,145.42c-9.67,0-17.5,6.8-17.5,15.18V172c0,8.39,7.83,15.19,17.5,15.19H271.85v-2.55h-.5l-30.57-2.51-6.18-21s11.93-11.62,12.71-11.92,24-1.21,24-1.21h.5v-2.53Z"
         id="path1488" />
      <path
         class="cls-5"
         d="M264.05,166.23c0-12.3,7.32-18.26,7.32-18.26H154.06c-8.88,0-16.07,6.24-16.07,13.95v8.77c0,7.7,7.19,13.95,16.07,13.95H271.37S264.05,181.71,264.05,166.23Z"
         id="path1490" />
      <path
         class="cls-6"
         d="M138,161.92v8.77a12.48,12.48,0,0,0,.46,3.35c4-8.41,11.54-16.5,26-19.1,33.7-6.07,106.94-7,106.94-7H154.06C145.18,148,138,154.21,138,161.92Z"
         id="path1492" />
      <path
         class="cls-4"
         d="M269.5,105.3h7.71a8.14,8.14,0,0,0-4.56-1.35H79.48c-10.1,0-18.3,7.11-18.3,15.88v10.08c0,8.77,8.2,15.88,18.3,15.88l191,0Z"
         id="path1494" />
      <path
         class="cls-3"
         d="M159.83,104c-9.66,0-17.5,6.8-17.5,15.19v11.4c0,8.39,7.84,15.19,17.5,15.19H280.08v-2.55h-.49L249,140.69l-6.18-21s11.92-11.63,12.7-11.93,24-1.21,24-1.21h.49V104Z"
         id="path1496" />
      <path
         class="cls-7"
         d="M272.28,124.8c0-12.3,7.33-18.27,7.33-18.27H162.3c-8.88,0-16.08,6.25-16.08,14v8.78c0,7.7,7.2,14,16.08,14H279.61S272.28,140.28,272.28,124.8Z"
         id="path1498" />
      <path
         class="cls-6"
         d="M146.22,120.48v8.78a12.36,12.36,0,0,0,.47,3.34c4-8.4,11.54-16.49,26-19.09,33.7-6.08,106.94-7,106.94-7H162.3C153.42,106.53,146.22,112.78,146.22,120.48Z"
         id="path1500" />
      <rect
         class="cls-8"
         x="46.54"
         y="17.91"
         width="18.53"
         height="155.09"
         transform="translate(108.94 192.43) rotate(-178.41)"
         id="rect1502" />
      <rect
         class="cls-9"
         x="48.54"
         y="23.11"
         width="7.07"
         height="1.3"
         transform="translate(103.46 48.95) rotate(-178.41)"
         id="rect1504" />
      <rect
         class="cls-9"
         x="48.44"
         y="26.52"
         width="7.07"
         height="1.3"
         transform="translate(103.18 55.77) rotate(-178.41)"
         id="rect1506" />
      <rect
         class="cls-9"
         x="48.35"
         y="29.93"
         width="7.07"
         height="1.3"
         transform="translate(102.89 62.59) rotate(-178.4)"
         id="rect1508" />
      <rect
         class="cls-9"
         x="48.16"
         y="36.75"
         width="7.07"
         height="1.3"
         transform="translate(102.32 76.23) rotate(-178.41)"
         id="rect1510" />
      <rect
         class="cls-9"
         x="48.06"
         y="40.16"
         width="7.07"
         height="1.3"
         transform="translate(102.04 83.05) rotate(-178.41)"
         id="rect1512" />
      <rect
         class="cls-9"
         x="47.97"
         y="43.58"
         width="7.07"
         height="1.3"
         transform="translate(101.75 89.87) rotate(-178.41)"
         id="rect1514" />
      <rect
         class="cls-9"
         x="47.78"
         y="50.4"
         width="7.07"
         height="1.3"
         transform="translate(101.18 103.5) rotate(-178.41)"
         id="rect1516" />
      <rect
         class="cls-9"
         x="47.68"
         y="53.81"
         width="7.07"
         height="1.3"
         transform="translate(100.9 110.32) rotate(-178.41)"
         id="rect1518" />
      <rect
         class="cls-9"
         x="47.59"
         y="57.22"
         width="7.07"
         height="1.3"
         transform="translate(100.61 117.15) rotate(-178.4)"
         id="rect1520" />
      <rect
         class="cls-9"
         x="47.4"
         y="64.05"
         width="7.07"
         height="1.3"
         transform="translate(100.04 130.78) rotate(-178.41)"
         id="rect1522" />
      <rect
         class="cls-9"
         x="47.3"
         y="67.46"
         width="7.07"
         height="1.3"
         transform="translate(99.76 137.6) rotate(-178.41)"
         id="rect1524" />
      <rect
         class="cls-9"
         x="47.21"
         y="70.87"
         width="7.07"
         height="1.3"
         transform="translate(99.48 144.42) rotate(-178.41)"
         id="rect1526" />
      <rect
         class="cls-9"
         x="47.02"
         y="77.69"
         width="7.07"
         height="1.3"
         transform="translate(98.9 158.06) rotate(-178.4)"
         id="rect1528" />
      <rect
         class="cls-9"
         x="46.92"
         y="81.1"
         width="7.07"
         height="1.3"
         transform="translate(98.62 164.88) rotate(-178.41)"
         id="rect1530" />
      <rect
         class="cls-9"
         x="46.83"
         y="84.52"
         width="7.07"
         height="1.3"
         transform="translate(98.34 171.7) rotate(-178.41)"
         id="rect1532" />
      <rect
         class="cls-9"
         x="46.64"
         y="91.34"
         width="7.07"
         height="1.3"
         transform="translate(97.77 185.34) rotate(-178.41)"
         id="rect1534" />
      <rect
         class="cls-9"
         x="46.54"
         y="94.75"
         width="7.07"
         height="1.3"
         transform="translate(97.48 192.16) rotate(-178.41)"
         id="rect1536" />
      <rect
         class="cls-9"
         x="46.45"
         y="98.16"
         width="7.07"
         height="1.3"
         transform="translate(97.2 198.97) rotate(-178.41)"
         id="rect1538" />
      <rect
         class="cls-9"
         x="46.26"
         y="104.99"
         width="7.07"
         height="1.3"
         transform="translate(96.63 212.62) rotate(-178.4)"
         id="rect1540" />
      <rect
         class="cls-9"
         x="46.16"
         y="108.4"
         width="7.07"
         height="1.3"
         transform="translate(96.34 219.43) rotate(-178.41)"
         id="rect1542" />
      <rect
         class="cls-9"
         x="46.07"
         y="111.81"
         width="7.07"
         height="1.3"
         transform="translate(96.06 226.25) rotate(-178.41)"
         id="rect1544" />
      <rect
         class="cls-9"
         x="45.88"
         y="118.63"
         width="7.07"
         height="1.3"
         transform="translate(95.49 239.89) rotate(-178.4)"
         id="rect1546" />
      <rect
         class="cls-9"
         x="45.78"
         y="122.04"
         width="7.07"
         height="1.3"
         transform="translate(95.2 246.71) rotate(-178.4)"
         id="rect1548" />
      <rect
         class="cls-9"
         x="45.69"
         y="125.46"
         width="7.07"
         height="1.3"
         transform="translate(94.92 253.53) rotate(-178.4)"
         id="rect1550" />
      <rect
         class="cls-9"
         x="45.5"
         y="132.28"
         width="7.07"
         height="1.3"
         transform="translate(94.36 267.17) rotate(-178.41)"
         id="rect1552" />
      <rect
         class="cls-9"
         x="45.4"
         y="135.69"
         width="7.07"
         height="1.3"
         transform="translate(94.07 273.99) rotate(-178.41)"
         id="rect1554" />
      <rect
         class="cls-9"
         x="45.31"
         y="139.1"
         width="7.07"
         height="1.3"
         transform="translate(93.77 280.81) rotate(-178.4)"
         id="rect1556" />
      <rect
         class="cls-9"
         x="45.12"
         y="145.92"
         width="7.07"
         height="1.3"
         transform="translate(93.21 294.45) rotate(-178.41)"
         id="rect1558" />
      <rect
         class="cls-9"
         x="45.02"
         y="149.34"
         width="7.07"
         height="1.3"
         transform="translate(92.93 301.26) rotate(-178.41)"
         id="rect1560" />
      <rect
         class="cls-9"
         x="44.93"
         y="152.75"
         width="7.07"
         height="1.3"
         transform="translate(92.64 308.08) rotate(-178.41)"
         id="rect1562" />
      <rect
         class="cls-9"
         x="44.74"
         y="159.57"
         width="7.07"
         height="1.3"
         transform="translate(92.07 321.72) rotate(-178.41)"
         id="rect1564" />
      <rect
         class="cls-9"
         x="44.64"
         y="162.98"
         width="7.07"
         height="1.3"
         transform="translate(91.79 328.54) rotate(-178.41)"
         id="rect1566" />
      <rect
         class="cls-9"
         x="44.55"
         y="166.39"
         width="7.07"
         height="1.3"
         transform="translate(91.51 335.36) rotate(-178.41)"
         id="rect1568" />
      <rect
         class="cls-9"
         x="44.83"
         y="156.2"
         width="10.32"
         height="1.3"
         transform="translate(95.6 315.04) rotate(-178.41)"
         id="rect1570" />
      <rect
         class="cls-9"
         x="44.45"
         y="169.85"
         width="10.32"
         height="1.3"
         transform="translate(94.47 342.32) rotate(-178.41)"
         id="rect1572" />
      <rect
         class="cls-9"
         x="48.63"
         y="19.74"
         width="10.32"
         height="1.3"
         transform="translate(106.99 42.27) rotate(-178.41)"
         id="rect1574" />
      <rect
         class="cls-9"
         x="48.25"
         y="33.39"
         width="10.32"
         height="1.3"
         transform="translate(105.85 69.54) rotate(-178.41)"
         id="rect1576" />
      <rect
         class="cls-9"
         x="47.87"
         y="47.03"
         width="10.32"
         height="1.3"
         transform="translate(104.72 96.82) rotate(-178.41)"
         id="rect1578" />
      <rect
         class="cls-9"
         x="47.49"
         y="60.68"
         width="10.32"
         height="1.3"
         transform="translate(103.58 124.1) rotate(-178.41)"
         id="rect1580" />
      <rect
         class="cls-9"
         x="47.11"
         y="74.33"
         width="10.32"
         height="1.3"
         transform="translate(102.44 151.38) rotate(-178.41)"
         id="rect1582" />
      <rect
         class="cls-9"
         x="46.73"
         y="87.97"
         width="10.32"
         height="1.3"
         transform="translate(101.3 178.65) rotate(-178.41)"
         id="rect1584" />
      <rect
         class="cls-9"
         x="46.35"
         y="101.62"
         width="10.32"
         height="1.3"
         transform="translate(100.16 205.93) rotate(-178.41)"
         id="rect1586" />
      <rect
         class="cls-9"
         x="45.97"
         y="115.27"
         width="10.32"
         height="1.3"
         transform="translate(99.02 233.21) rotate(-178.41)"
         id="rect1588" />
      <rect
         class="cls-9"
         x="45.59"
         y="128.91"
         width="10.32"
         height="1.3"
         transform="translate(97.89 260.48) rotate(-178.41)"
         id="rect1590" />
      <rect
         class="cls-9"
         x="45.21"
         y="142.56"
         width="10.32"
         height="1.3"
         transform="translate(96.74 287.76) rotate(-178.41)"
         id="rect1592" />
      <rect
         class="cls-10"
         x="62.84"
         y="56.61"
         width="7.8"
         height="110.68"
         transform="translate(114.8 233.1) rotate(-170.84)"
         id="rect1594" />
      <rect
         class="cls-11"
         x="71.77"
         y="55.87"
         width="7.8"
         height="1.46"
         transform="translate(141.36 124.52) rotate(-170.83)"
         id="rect1596" />
      <path
         class="cls-3"
         d="M71.94,55.25l7.7,1.25.15-1a3.9,3.9,0,0,0-3.23-4.47h0a3.91,3.91,0,0,0-4.47,3.23Z"
         id="path1598" />
      <polygon
         class="cls-12"
         points="54.08 165.95 55.25 170.46 56.5 175.4 59.25 171.13 61.78 167.19 54.08 165.95"
         id="polygon1600" />
      <path
         class="cls-13"
         d="M55.25,170.46l1.25,4.94,2.75-4.27a4.87,4.87,0,0,0-2-.76A5,5,0,0,0,55.25,170.46Z"
         id="path1602" />
      <rect
         class="cls-10"
         x="62.87"
         y="56.3"
         width="3.9"
         height="110.68"
         transform="translate(111.02 232.17) rotate(-170.83)"
         id="rect1604" />
      <rect
         class="cls-14"
         x="64.79"
         y="56.61"
         width="3.9"
         height="110.68"
         transform="translate(114.8 233.1) rotate(-170.83)"
         id="rect1606" />
      <rect
         class="cls-10"
         x="40.5"
         y="37.2"
         width="7.8"
         height="110.68"
         transform="translate(-4.91 2.52) rotate(-3.08)"
         id="rect1608" />
      <rect
         class="cls-15"
         x="43.51"
         y="147.8"
         width="7.8"
         height="1.46"
         transform="translate(-7.91 2.76) rotate(-3.08)"
         id="rect1610" />
      <path
         class="cls-16"
         d="M51.35,149.05l-7.79.42,0,1a3.89,3.89,0,0,0,4.1,3.68h0A3.89,3.89,0,0,0,51.4,150Z"
         id="path1612" />
      <polygon
         class="cls-12"
         points="45.32 37.08 43.22 32.92 40.95 28.36 39.17 33.12 37.53 37.5 45.32 37.08"
         id="polygon1614" />
      <path
         class="cls-14"
         d="M43.22,32.92,41,28.36l-1.78,4.76a5,5,0,0,0,2.08.33A5.11,5.11,0,0,0,43.22,32.92Z"
         id="path1616" />
      <rect
         class="cls-10"
         x="44.4"
         y="37.09"
         width="3.9"
         height="110.68"
         transform="translate(-4.91 2.63) rotate(-3.09)"
         id="rect1618" />
      <rect
         class="cls-14"
         x="42.45"
         y="37.2"
         width="3.9"
         height="110.68"
         transform="translate(-4.91 2.52) rotate(-3.08)"
         id="rect1620" />
      <rect
         class="cls-3"
         x="22.56"
         y="46.72"
         width="12.57"
         height="34.12"
         transform="translate(-7.48 3.95) rotate(-6.93)"
         id="rect1622" />
      <rect
         class="cls-17"
         x="29.36"
         y="80.43"
         width="12.57"
         height="78.56"
         transform="translate(-14.18 5.18) rotate(-6.93)"
         id="rect1624" />
      <rect
         class="cls-3"
         x="25.09"
         y="82.76"
         width="12.57"
         height="3.66"
         transform="translate(-9.98 4.4) rotate(-6.93)"
         id="rect1626" />
      <rect
         class="cls-18"
         x="27.33"
         y="46.94"
         width="4.21"
         height="112.67"
         transform="translate(-12.25 4.31) rotate(-6.93)"
         id="rect1628" />
      <polygon
         class="cls-19"
         points="78.44 108.36 71.6 181.19 71.08 186.86 28.75 186.86 21.39 108.36 78.44 108.36"
         id="polygon1630" />
      <path
         class="cls-20"
         d="M78.44,108.36,71.6,181.19H68.09a35,35,0,0,1-34.83-31.71L29.4,108.36Z"
         id="path1632" />
      <path
         class="cls-21"
         d="M186.51,71.07s.32,3.19,2.84,3.41c-2.52.22-2.84,3.41-2.84,3.41s-.33-3.19-2.84-3.41C186.18,74.26,186.51,71.07,186.51,71.07Z"
         id="path1634" />
      <path
         class="cls-21"
         d="M2.84,84.65s.32,3.19,2.84,3.41c-2.52.22-2.84,3.41-2.84,3.41S2.52,88.28,0,88.06C2.52,87.84,2.84,84.65,2.84,84.65Z"
         id="path1636" />
      <path
         class="cls-22"
         d="M134.1,7.4s.5,5,4.45,5.35c-4,.34-4.45,5.34-4.45,5.34s-.51-5-4.45-5.34C133.59,12.4,134.1,7.4,134.1,7.4Z"
         id="path1638" />
      <path
         class="cls-22"
         d="M6.43,157.13s.51,5,4.46,5.34c-3.95.35-4.46,5.35-4.46,5.35s-.5-5-4.45-5.35C5.93,162.13,6.43,157.13,6.43,157.13Z"
         id="path1640" />
      <path
         class="cls-22"
         d="M280.08,71.54s.28,2.75,2.45,2.94c-2.17.19-2.45,2.94-2.45,2.94s-.27-2.75-2.44-2.94C279.81,74.29,280.08,71.54,280.08,71.54Z"
         id="path1642" />
    </g>
  </g>
</svg>
