<?xml version="1.0" encoding="UTF-8" standalone="no"?>
<svg
   id="Layer_1"
   data-name="Layer 1"
   viewBox="0 0 230.08 220.02"
   version="1.1"
   sodipodi:docname="no_students.svg"
   inkscape:version="1.1.1 (c3084ef, 2021-09-22)"
   xmlns:inkscape="http://www.inkscape.org/namespaces/inkscape"
   xmlns:sodipodi="http://sodipodi.sourceforge.net/DTD/sodipodi-0.dtd"
   xmlns:xlink="http://www.w3.org/1999/xlink"
   xmlns="http://www.w3.org/2000/svg"
   xmlns:svg="http://www.w3.org/2000/svg">
  <sodipodi:namedview
     id="namedview107"
     pagecolor="#ffffff"
     bordercolor="#666666"
     borderopacity="1.0"
     inkscape:pageshadow="2"
     inkscape:pageopacity="0.0"
     inkscape:pagecheckerboard="0"
     showgrid="false"
     inkscape:zoom="2.8406508"
     inkscape:cx="114.93845"
     inkscape:cy="110.01"
     inkscape:window-width="1296"
     inkscape:window-height="847"
     inkscape:window-x="0"
     inkscape:window-y="25"
     inkscape:window-maximized="0"
     inkscape:current-layer="Layer_1" />
  <defs
     id="defs22">
    <style
       id="style2">.cls-1{fill:url(#linear-gradient);}.cls-2{opacity:0.6;fill:url(#linear-gradient-2);}.cls-13,.cls-3{fill:#0078a0;}.cls-11,.cls-4{fill:#00628e;}.cls-5{fill:#b8bfc1;}.cls-6{fill:url(#linear-gradient-3);}.cls-7{fill:url(#linear-gradient-4);}.cls-8{fill:url(#linear-gradient-5);}.cls-9{fill:#ebaeb3;}.cls-10,.cls-12{fill:#e08087;}.cls-11{opacity:0.5;}.cls-12{opacity:0.7;}.cls-13{opacity:0.4;}.cls-14{fill:url(#linear-gradient-6);}</style>
    <linearGradient
       id="linear-gradient"
       x1="120.06"
       y1="378.32"
       x2="126.27"
       y2="197.91"
       gradientUnits="userSpaceOnUse">
      <stop
         offset="0"
         stop-color="#31779c"
         id="stop4" />
      <stop
         offset="1"
         stop-color="#31779c"
         stop-opacity="0"
         id="stop6" />
    </linearGradient>
    <linearGradient
       id="linear-gradient-2"
       x1="115.04"
       y1="892.16"
       x2="115.04"
       y2="8.08"
       xlink:href="#linear-gradient" />
    <linearGradient
       id="linear-gradient-3"
       x1="92.54"
       y1="62.79"
       x2="174.65"
       y2="62.79"
       gradientUnits="userSpaceOnUse">
      <stop
         offset="0"
         stop-color="#c0cbce"
         id="stop10" />
      <stop
         offset="1"
         stop-color="#cfdde3"
         id="stop12" />
    </linearGradient>
    <linearGradient
       id="linear-gradient-4"
       x1="31.04"
       y1="135.35"
       x2="167.67"
       y2="135.35"
       xlink:href="#linear-gradient-3" />
    <linearGradient
       id="linear-gradient-5"
       x1="16.72"
       y1="111.67"
       x2="142.31"
       y2="111.67"
       xlink:href="#linear-gradient-3" />
    <linearGradient
       id="linear-gradient-6"
       x1="175.44"
       y1="138.39"
       x2="175.44"
       y2="4.3"
       gradientUnits="userSpaceOnUse">
      <stop
         offset="0"
         stop-color="#c0cbce"
         id="stop17" />
      <stop
         offset="1"
         stop-color="#fff"
         id="stop19" />
    </linearGradient>
  </defs>
  <ellipse
     class="cls-1"
     cx="125.82"
     cy="211.01"
     rx="98.47"
     ry="9.01"
     id="ellipse24" />
  <path
     class="cls-2"
     d="M212.61,161.77c-9.08,7.67-20.19,12.53-31.47,16.24C136.9,192.63,83,193.09,41.34,170.22a93.41,93.41,0,0,1-17.1-12c-.79-.68-1.57-1.4-2.32-2.13s-1.29-1.23-1.93-1.88-1.27-1.33-1.89-2c-.42-.46-.83-.92-1.22-1.39,0,0-.05,0,0,0a1,1,0,0,1-.22-.25,1.2,1.2,0,0,1-.19-.21c-.95-1.09-1.85-2.21-2.72-3.36,0,0,0,0,0,0a2,2,0,0,1-.18-.26,1.56,1.56,0,0,1-.16-.2A65.19,65.19,0,0,1,4,129.36,69,69,0,0,1,0,107s0,0,0,0a.81.81,0,0,1,0-.22,1.21,1.21,0,0,1,0-.19v0c0-.82,0-1.65,0-2.47v0a.86.86,0,0,1,0-.22.3.3,0,0,1,0-.19s0,0,0,0A79.33,79.33,0,0,1,2.09,88l.51-2.1c.29-1.19.61-2.37,1-3.54a1.35,1.35,0,0,1,.08-.24,1.37,1.37,0,0,1,.07-.24c.12-.41.24-.82.38-1.23a1.23,1.23,0,0,1,.06-.22c0-.08.06-.17.07-.24q.64-2,1.38-3.93c.22-.62.45-1.23.68-1.83Q7.37,71.66,8.59,69a117.77,117.77,0,0,1,9-16.12C32.35,30.65,54.52,12.5,76.79,4.24c36.45-13.55,68.07,7.36,90,34.56a173.28,173.28,0,0,1,11.45,16.08l1,1.59c.05.06.08.13.13.2.17.29.38.56.57.87v0c.29.44.56.88.83,1.31.05.07.09.14.14.2.9,1.38,1.82,2.78,2.74,4.16.17.24.34.5.51.75s.16.21.22.29,0,0,0,0c.49.72,1,1.44,1.52,2.15,0,0,0,0,0,.07a2.09,2.09,0,0,0,.14.17l.29.43c1.46,2,3,4,4.58,5.87a.44.44,0,0,0,.09.11,1.25,1.25,0,0,1,.08.12c1.31,1.53,2.66,3,4.07,4.48a.68.68,0,0,0,.17.17.57.57,0,0,0,.14.13.2.2,0,0,0,.09.09v0s0,0,.06,0v0l.36.35.51.5a61.37,61.37,0,0,0,6.75,5.71c10.29,7.44,21.08,13.78,24.91,27C233.57,130.15,227.13,149.47,212.61,161.77Z"
     id="path26" />
  <polygon
     class="cls-3"
     points="29.1 110.11 51.22 131.86 59.26 130.14 37.58 109.43 29.1 110.11"
     id="polygon28" />
  <polygon
     class="cls-4"
     points="59.26 130.14 56.31 130.64 34.14 109.71 37.58 109.43 59.26 130.14"
     id="polygon30" />
  <polygon
     class="cls-3"
     points="42.78 137.6 45.91 213.31 49.05 213.31 49.05 140.14 42.78 137.6"
     id="polygon32" />
  <polygon
     class="cls-4"
     points="49.05 213.31 49.05 140.14 53.39 140.14 51.22 213.31 49.05 213.31"
     id="polygon34" />
  <polygon
     class="cls-3"
     points="94.05 146.78 97.19 216.24 100.32 216.24 100.32 149.11 94.05 146.78"
     id="polygon36" />
  <polygon
     class="cls-4"
     points="100.32 216.24 100.32 149.11 104.66 149.11 102.49 216.24 100.32 216.24"
     id="polygon38" />
  <polygon
     class="cls-3"
     points="149.13 131.55 152.26 209.63 155.4 209.63 155.4 134.17 149.13 131.55"
     id="polygon40" />
  <polygon
     class="cls-4"
     points="155.4 209.63 155.4 134.17 159.73 134.17 157.56 209.63 155.4 209.63"
     id="polygon42" />
  <polygon
     class="cls-3"
     points="107.83 73.5 105.35 128.32 112.81 128.32 112.81 73.5 107.83 73.5"
     id="polygon44" />
  <rect
     class="cls-4"
     x="112.81"
     y="73.5"
     width="2.23"
     height="54.83"
     id="rect46" />
  <polygon
     class="cls-3"
     points="147.22 77.03 144.74 131.86 152.2 131.86 152.2 77.03 147.22 77.03"
     id="polygon48" />
  <rect
     class="cls-4"
     x="152.2"
     y="77.03"
     width="2.23"
     height="54.83"
     id="rect50" />
  <polygon
     class="cls-5"
     points="174.65 34.11 169.58 37.31 95.02 42.38 95.02 84.39 92.54 85.96 95.02 88.64 170.63 94.16 177.13 36.8 174.65 34.11"
     id="polygon52" />
  <polygon
     class="cls-6"
     points="92.54 85.96 92.54 39.69 174.65 34.11 168.15 91.47 92.54 85.96"
     id="polygon54" />
  <polygon
     class="cls-5"
     points="31.04 135.34 31.04 138.24 101.42 152.08 167.67 133.9 167.67 131.19 31.04 135.34"
     id="polygon56" />
  <polygon
     class="cls-7"
     points="93.02 123.91 167.67 131.19 101.56 146.78 31.04 135.34 93.02 123.91"
     id="polygon58" />
  <polygon
     class="cls-5"
     points="16.72 108.53 16.72 111.67 91.83 121.64 142.31 112.55 142.31 110.02 16.72 108.53"
     id="polygon60" />
  <polygon
     class="cls-8"
     points="16.72 108.53 91.9 118.17 142.31 110.02 87.08 105.18 63.86 108.48 33.77 106.48 16.72 108.53"
     id="polygon62" />
  <path
     class="cls-9"
     d="M194.41,184.62s24.4-41.53,14.66-48.87S189.3,158.81,194.41,184.62Z"
     id="path64" />
  <path
     class="cls-10"
     d="M206.61,140.47c-6.68,12.34-10.42,26.1-11.94,40-.36,3.32-.64,6.66-.67,10,0,.1.15.1.16,0a164.23,164.23,0,0,1,2-18.24,114.84,114.84,0,0,1,5.44-20,103.43,103.43,0,0,1,5.21-11.63.09.09,0,0,0-.16-.09Z"
     id="path66" />
  <path
     class="cls-10"
     d="M208,145.6a28,28,0,0,0-3.42,2.82c-.56.52-1.11,1.06-1.64,1.61a14,14,0,0,0-1.5,1.67c0,.06.05.13.11.08.55-.49,1-1.06,1.55-1.59s1.09-1.08,1.65-1.6c1.07-1,2.19-2,3.34-2.87.07-.05,0-.17-.09-.12Z"
     id="path68" />
  <path
     class="cls-10"
     d="M207.37,148a28.79,28.79,0,0,0-3.43,2.81c-.56.52-1.1,1.06-1.63,1.61a14.79,14.79,0,0,0-1.5,1.67c0,.07.05.13.11.08.55-.48,1-1.06,1.55-1.58s1.09-1.08,1.65-1.61c1.07-1,2.19-2,3.34-2.86a.08.08,0,0,0-.09-.12Z"
     id="path70" />
  <path
     class="cls-10"
     d="M193.19,196.67s34.94-32.79,27.61-42.48S195.43,170.66,193.19,196.67Z"
     id="path72" />
  <path
     class="cls-9"
     d="M217,157.88c-8.73,8.6-15.34,19.07-20.44,30.16q-2.13,4.64-4,9.41c-.12.3.37.43.49.13,4.34-11.29,9.87-22.24,17.43-31.73a84.87,84.87,0,0,1,6.83-7.61.25.25,0,0,0-.36-.36Z"
     id="path74" />
  <path
     class="cls-9"
     d="M192.17,197.79s-28.51-38.51-19.56-46.73S194.63,171.8,192.17,197.79Z"
     id="path76" />
  <path
     class="cls-10"
     d="M175.38,155.56A104.44,104.44,0,0,1,185.55,175a120.33,120.33,0,0,1,5.71,18.87c.69,3.21,1.22,6.43,1.77,9.66,0,.09.16.07.15,0a111.51,111.51,0,0,0-3.69-17.79A108.71,108.71,0,0,0,182,166.48a95.73,95.73,0,0,0-6.49-11c-.07-.09-.22,0-.16.09Z"
     id="path78" />
  <path
     class="cls-10"
     d="M174.59,160.81c1.24.78,2.46,1.6,3.63,2.49.63.47,1.24,1,1.85,1.46s1.07.94,1.65,1.36c.07,0,.13-.05.08-.11a15.72,15.72,0,0,0-1.66-1.5c-.57-.47-1.15-.94-1.75-1.38a28.85,28.85,0,0,0-3.72-2.46.08.08,0,0,0-.08.14Z"
     id="path80" />
  <path
     class="cls-10"
     d="M175.47,163.11c1.25.79,2.46,1.61,3.63,2.5.63.47,1.25.95,1.85,1.45s1.08.95,1.65,1.36c.07.05.13,0,.08-.1a13.88,13.88,0,0,0-1.66-1.5c-.57-.48-1.15-.94-1.74-1.39a29.59,29.59,0,0,0-3.73-2.45.08.08,0,0,0-.08.13Z"
     id="path82" />
  <path
     class="cls-10"
     d="M194,183.84s-20.39-43.36-10-49.67S201.52,158.84,194,183.84Z"
     id="path84" />
  <path
     class="cls-9"
     d="M185.84,139.13a106.55,106.55,0,0,1,7.26,28.54,130.66,130.66,0,0,1,.38,24.62c-.27,3.61-.71,7.19-1.18,10.77,0,.09.14.11.15,0a124.82,124.82,0,0,0,1.71-21,117.21,117.21,0,0,0-2.93-27A96.67,96.67,0,0,0,186,139.06c0-.09-.2,0-.16.07Z"
     id="path86" />
  <path
     class="cls-3"
     d="M182,190l.13.89.28,1.91L184.93,210a1.22,1.22,0,0,0,1.2,1h14.12a1.23,1.23,0,0,0,1.21-1L204,192.76l.28-1.91.14-.89Z"
     id="path88" />
  <polygon
     class="cls-11"
     points="182.08 190.85 182.36 192.76 204.02 192.76 204.3 190.85 182.08 190.85"
     id="polygon90" />
  <path
     class="cls-4"
     d="M181.63,191.67h23.13a1.34,1.34,0,0,0,1.34-1.34h0a1.34,1.34,0,0,0-1.34-1.34H181.63a1.34,1.34,0,0,0-1.34,1.34h0A1.34,1.34,0,0,0,181.63,191.67Z"
     id="path92" />
  <path
     class="cls-12"
     d="m 196.50765,28.173264 c 0,0 0.33,3.19 2.84,3.41 -2.51,0.22 -2.84,3.41 -2.84,3.41 0,0 -0.32,-3.19 -2.84,-3.41 2.52,-0.22 2.84,-3.41 2.84,-3.41 z"
     id="path94" />
  <path
     class="cls-12"
     d="M37,70.09s.32,3.18,2.84,3.41C37.3,73.72,37,76.91,37,76.91s-.32-3.19-2.84-3.41C36.66,73.27,37,70.09,37,70.09Z"
     id="path96" />
  <path
     class="cls-13"
     d="m 103.5794,4.2243841 c 0,0 0.51,5 4.45,5.34 -3.94,0.35 -4.45,5.3499999 -4.45,5.3499999 0,0 -0.51,-4.9999999 -4.449992,-5.3499999 3.939992,-0.34 4.449992,-5.34 4.449992,-5.34 z"
     id="path98" />
  <path
     class="cls-13"
     d="M189.09,105.59s.28,2.75,2.45,2.94c-2.17.19-2.45,2.94-2.45,2.94s-.28-2.75-2.44-2.94C188.81,108.34,189.09,105.59,189.09,105.59Z"
     id="path100" />
</svg>
